<svg xmlns="http://www.w3.org/2000/svg" xmlns:xlink="http://www.w3.org/1999/xlink" width="300" zoomAndPan="magnify" viewBox="0 0 224.87999 50.249999" height="67" preserveAspectRatio="xMidYMid meet" version="1.0"><defs><g/><clipPath id="d2498658de"><path d="M 1.59375 0 L 223.167969 0 L 223.167969 49.511719 L 1.59375 49.511719 Z M 1.59375 0 " clip-rule="nonzero"/></clipPath><clipPath id="5b7baf4ee9"><path d="M 6 42 L 12 42 L 12 47.652344 L 6 47.652344 Z M 6 42 " clip-rule="nonzero"/></clipPath><clipPath id="2ab62f81a3"><path d="M 11 1.835938 L 52.214844 1.835938 L 52.214844 43 L 11 43 Z M 11 1.835938 " clip-rule="nonzero"/></clipPath><clipPath id="f01fd2e9be"><path d="M 6.324219 34.398438 L 19.554688 34.398438 L 19.554688 47.644531 L 6.324219 47.644531 Z M 6.324219 34.398438 " clip-rule="nonzero"/></clipPath><clipPath id="2bf8f0e3b2"><path d="M 26.398438 22.484375 L 51.699219 22.484375 L 51.699219 47.644531 L 26.398438 47.644531 Z M 26.398438 22.484375 " clip-rule="nonzero"/></clipPath><clipPath id="06581b1884"><path d="M 5.65625 1.835938 L 32 1.835938 L 32 28 L 5.65625 28 Z M 5.65625 1.835938 " clip-rule="nonzero"/></clipPath></defs><g clip-path="url(#d2498658de)"><path fill="#ffffff" d="M 1.59375 0 L 223.285156 0 L 223.285156 56.902344 L 1.59375 56.902344 Z M 1.59375 0 " fill-opacity="1" fill-rule="nonzero"/><path fill="#ffffff" d="M 1.59375 0 L 223.285156 0 L 223.285156 49.511719 L 1.59375 49.511719 Z M 1.59375 0 " fill-opacity="1" fill-rule="nonzero"/><path fill="#ffffff" d="M 1.59375 0 L 223.285156 0 L 223.285156 49.511719 L 1.59375 49.511719 Z M 1.59375 0 " fill-opacity="1" fill-rule="nonzero"/></g><g fill="#000000" fill-opacity="1"><g transform="translate(60.497711, 14.883219)"><g><path d="M 4.890625 -10.9375 C 6.179688 -10.9375 7.332031 -10.597656 8.34375 -9.921875 L 7.8125 -8.765625 C 6.894531 -9.378906 5.894531 -9.6875 4.8125 -9.6875 C 4.101562 -9.6875 3.535156 -9.554688 3.109375 -9.296875 C 2.691406 -9.046875 2.484375 -8.691406 2.484375 -8.234375 C 2.484375 -7.796875 2.632812 -7.429688 2.9375 -7.140625 C 3.238281 -6.847656 3.617188 -6.628906 4.078125 -6.484375 C 4.535156 -6.347656 5.023438 -6.191406 5.546875 -6.015625 C 6.078125 -5.835938 6.566406 -5.648438 7.015625 -5.453125 C 7.472656 -5.253906 7.851562 -4.9375 8.15625 -4.5 C 8.457031 -4.070312 8.609375 -3.550781 8.609375 -2.9375 C 8.609375 -2.039062 8.242188 -1.316406 7.515625 -0.765625 C 6.785156 -0.222656 5.835938 0.046875 4.671875 0.046875 C 3.890625 0.046875 3.128906 -0.101562 2.390625 -0.40625 C 1.660156 -0.707031 1.03125 -1.113281 0.5 -1.625 L 1.0625 -2.734375 C 1.5625 -2.242188 2.132812 -1.863281 2.78125 -1.59375 C 3.425781 -1.332031 4.0625 -1.203125 4.6875 -1.203125 C 5.46875 -1.203125 6.085938 -1.347656 6.546875 -1.640625 C 7.003906 -1.941406 7.234375 -2.351562 7.234375 -2.875 C 7.234375 -3.257812 7.117188 -3.585938 6.890625 -3.859375 C 6.671875 -4.128906 6.382812 -4.335938 6.03125 -4.484375 C 5.675781 -4.640625 5.28125 -4.78125 4.84375 -4.90625 C 4.40625 -5.039062 3.96875 -5.179688 3.53125 -5.328125 C 3.09375 -5.484375 2.691406 -5.664062 2.328125 -5.875 C 1.972656 -6.082031 1.679688 -6.375 1.453125 -6.75 C 1.234375 -7.132812 1.125 -7.59375 1.125 -8.125 C 1.125 -8.976562 1.46875 -9.660156 2.15625 -10.171875 C 2.84375 -10.679688 3.753906 -10.9375 4.890625 -10.9375 Z M 4.890625 -10.9375 "/></g></g></g><g fill="#000000" fill-opacity="1"><g transform="translate(70.006866, 14.883219)"><g><path d="M 5.859375 -8.25 C 6.835938 -8.25 7.601562 -7.960938 8.15625 -7.390625 C 8.707031 -6.828125 8.984375 -6.050781 8.984375 -5.0625 L 8.984375 0 L 7.765625 0 L 7.765625 -4.734375 C 7.765625 -5.460938 7.554688 -6.023438 7.140625 -6.421875 C 6.734375 -6.828125 6.171875 -7.03125 5.453125 -7.03125 C 4.648438 -7.019531 4.003906 -6.773438 3.515625 -6.296875 C 3.035156 -5.828125 2.757812 -5.195312 2.6875 -4.40625 L 2.6875 0 L 1.484375 0 L 1.484375 -8.203125 L 2.6875 -8.203125 L 2.6875 -6.390625 C 3.25 -7.609375 4.304688 -8.226562 5.859375 -8.25 Z M 5.859375 -8.25 "/></g></g></g><g fill="#000000" fill-opacity="1"><g transform="translate(80.216371, 14.883219)"><g><path d="M 1.5 -11.140625 C 1.65625 -11.304688 1.84375 -11.390625 2.0625 -11.390625 C 2.289062 -11.390625 2.476562 -11.304688 2.625 -11.140625 C 2.78125 -10.984375 2.859375 -10.785156 2.859375 -10.546875 C 2.859375 -10.304688 2.78125 -10.109375 2.625 -9.953125 C 2.476562 -9.796875 2.289062 -9.71875 2.0625 -9.71875 C 1.84375 -9.71875 1.65625 -9.796875 1.5 -9.953125 C 1.351562 -10.109375 1.28125 -10.304688 1.28125 -10.546875 C 1.28125 -10.785156 1.351562 -10.984375 1.5 -11.140625 Z M 2.671875 0 L 1.484375 0 L 1.484375 -8.203125 L 2.671875 -8.203125 Z M 2.671875 0 "/></g></g></g><g fill="#000000" fill-opacity="1"><g transform="translate(84.371764, 14.883219)"><g><path d="M 5.921875 -8.25 C 7.085938 -8.25 8.035156 -7.859375 8.765625 -7.078125 C 9.492188 -6.296875 9.859375 -5.296875 9.859375 -4.078125 C 9.859375 -2.859375 9.5 -1.863281 8.78125 -1.09375 C 8.0625 -0.332031 7.117188 0.046875 5.953125 0.046875 C 4.472656 0.046875 3.410156 -0.554688 2.765625 -1.765625 L 2.765625 3.015625 L 1.5625 3.015625 L 1.5625 -8.203125 L 2.765625 -8.203125 L 2.765625 -6.421875 C 3.410156 -7.640625 4.460938 -8.25 5.921875 -8.25 Z M 5.71875 -1.0625 C 6.5625 -1.0625 7.257812 -1.34375 7.8125 -1.90625 C 8.363281 -2.476562 8.640625 -3.210938 8.640625 -4.109375 C 8.640625 -4.992188 8.363281 -5.722656 7.8125 -6.296875 C 7.257812 -6.867188 6.5625 -7.15625 5.71875 -7.15625 C 4.851562 -7.15625 4.144531 -6.867188 3.59375 -6.296875 C 3.039062 -5.734375 2.765625 -5.003906 2.765625 -4.109375 C 2.765625 -3.210938 3.039062 -2.476562 3.59375 -1.90625 C 4.144531 -1.34375 4.851562 -1.0625 5.71875 -1.0625 Z M 5.71875 -1.0625 "/></g></g></g><g fill="#000000" fill-opacity="1"><g transform="translate(94.89253, 14.883219)"><g><path d="M 5.921875 -8.25 C 7.085938 -8.25 8.035156 -7.859375 8.765625 -7.078125 C 9.492188 -6.296875 9.859375 -5.296875 9.859375 -4.078125 C 9.859375 -2.859375 9.5 -1.863281 8.78125 -1.09375 C 8.0625 -0.332031 7.117188 0.046875 5.953125 0.046875 C 4.472656 0.046875 3.410156 -0.554688 2.765625 -1.765625 L 2.765625 3.015625 L 1.5625 3.015625 L 1.5625 -8.203125 L 2.765625 -8.203125 L 2.765625 -6.421875 C 3.410156 -7.640625 4.460938 -8.25 5.921875 -8.25 Z M 5.71875 -1.0625 C 6.5625 -1.0625 7.257812 -1.34375 7.8125 -1.90625 C 8.363281 -2.476562 8.640625 -3.210938 8.640625 -4.109375 C 8.640625 -4.992188 8.363281 -5.722656 7.8125 -6.296875 C 7.257812 -6.867188 6.5625 -7.15625 5.71875 -7.15625 C 4.851562 -7.15625 4.144531 -6.867188 3.59375 -6.296875 C 3.039062 -5.734375 2.765625 -5.003906 2.765625 -4.109375 C 2.765625 -3.210938 3.039062 -2.476562 3.59375 -1.90625 C 4.144531 -1.34375 4.851562 -1.0625 5.71875 -1.0625 Z M 5.71875 -1.0625 "/></g></g></g><g fill="#000000" fill-opacity="1"><g transform="translate(105.413296, 14.883219)"><g><path d="M 4.71875 -8.234375 C 6.007812 -8.242188 6.984375 -7.832031 7.640625 -7 C 8.304688 -6.175781 8.609375 -5.050781 8.546875 -3.625 L 1.859375 -3.625 C 1.953125 -2.820312 2.269531 -2.1875 2.8125 -1.71875 C 3.351562 -1.25 4.023438 -1.015625 4.828125 -1.015625 C 5.859375 -1.015625 6.703125 -1.351562 7.359375 -2.03125 L 8.03125 -1.328125 C 7.207031 -0.410156 6.109375 0.046875 4.734375 0.046875 C 3.523438 0.046875 2.539062 -0.332031 1.78125 -1.09375 C 1.03125 -1.863281 0.65625 -2.859375 0.65625 -4.078125 C 0.65625 -5.304688 1.03125 -6.304688 1.78125 -7.078125 C 2.539062 -7.847656 3.519531 -8.234375 4.71875 -8.234375 Z M 1.859375 -4.625 L 7.453125 -4.625 C 7.410156 -5.414062 7.140625 -6.039062 6.640625 -6.5 C 6.148438 -6.957031 5.507812 -7.1875 4.71875 -7.1875 C 3.9375 -7.1875 3.285156 -6.953125 2.765625 -6.484375 C 2.242188 -6.023438 1.941406 -5.40625 1.859375 -4.625 Z M 1.859375 -4.625 "/></g></g></g><g fill="#000000" fill-opacity="1"><g transform="translate(114.564495, 14.883219)"><g><path d="M 5.375 -1.546875 L 5.71875 -0.5625 C 5.125 -0.15625 4.503906 0.0507812 3.859375 0.0625 C 3.222656 0.0625 2.71875 -0.128906 2.34375 -0.515625 C 1.96875 -0.910156 1.78125 -1.492188 1.78125 -2.265625 L 1.78125 -6.953125 L 0.59375 -6.953125 L 0.59375 -7.9375 L 1.78125 -7.9375 L 1.78125 -10.09375 L 2.96875 -10.09375 L 2.96875 -7.9375 L 5.578125 -7.953125 L 5.578125 -6.953125 L 2.96875 -6.953125 L 2.96875 -2.484375 C 2.96875 -1.578125 3.332031 -1.125 4.0625 -1.125 C 4.488281 -1.125 4.925781 -1.265625 5.375 -1.546875 Z M 5.375 -1.546875 "/></g></g></g><g fill="#000000" fill-opacity="1"><g transform="translate(59.01977, 42.285918)"><g><path d="M 11.140625 -2.484375 C 12.242188 -2.484375 13.265625 -2.75 14.203125 -3.28125 C 15.148438 -3.8125 15.945312 -4.515625 16.59375 -5.390625 L 18.6875 -3.40625 C 17.769531 -2.3125 16.65625 -1.421875 15.34375 -0.734375 C 14.039062 -0.0546875 12.640625 0.28125 11.140625 0.28125 C 9.765625 0.28125 8.46875 0.00390625 7.25 -0.546875 C 6.03125 -1.097656 4.972656 -1.84375 4.078125 -2.78125 C 3.179688 -3.726562 2.472656 -4.832031 1.953125 -6.09375 C 1.429688 -7.363281 1.171875 -8.703125 1.171875 -10.109375 C 1.171875 -11.535156 1.429688 -12.878906 1.953125 -14.140625 C 2.472656 -15.398438 3.179688 -16.5 4.078125 -17.4375 C 4.972656 -18.375 6.03125 -19.117188 7.25 -19.671875 C 8.46875 -20.234375 9.765625 -20.515625 11.140625 -20.515625 C 12.410156 -20.515625 13.613281 -20.257812 14.75 -19.75 C 15.882812 -19.25 16.898438 -18.585938 17.796875 -17.765625 L 16.03125 -15.515625 C 15.394531 -16.179688 14.65625 -16.726562 13.8125 -17.15625 C 12.976562 -17.582031 12.085938 -17.796875 11.140625 -17.796875 C 10.171875 -17.796875 9.257812 -17.585938 8.40625 -17.171875 C 7.5625 -16.765625 6.820312 -16.207031 6.1875 -15.5 C 5.5625 -14.800781 5.0625 -13.988281 4.6875 -13.0625 C 4.320312 -12.144531 4.140625 -11.160156 4.140625 -10.109375 C 4.140625 -9.066406 4.320312 -8.082031 4.6875 -7.15625 C 5.0625 -6.226562 5.5625 -5.414062 6.1875 -4.71875 C 6.820312 -4.03125 7.5625 -3.484375 8.40625 -3.078125 C 9.257812 -2.679688 10.171875 -2.484375 11.140625 -2.484375 Z M 11.140625 -2.484375 "/></g></g></g><g fill="#000000" fill-opacity="1"><g transform="translate(78.605424, 42.285918)"><g><path d="M 7.59375 0.34375 C 6.644531 0.34375 5.753906 0.160156 4.921875 -0.203125 C 4.097656 -0.578125 3.375 -1.085938 2.75 -1.734375 C 2.132812 -2.390625 1.644531 -3.15625 1.28125 -4.03125 C 0.925781 -4.90625 0.75 -5.835938 0.75 -6.828125 C 0.75 -7.816406 0.925781 -8.75 1.28125 -9.625 C 1.644531 -10.5 2.132812 -11.257812 2.75 -11.90625 C 3.375 -12.550781 4.097656 -13.0625 4.921875 -13.4375 C 5.753906 -13.8125 6.644531 -14 7.59375 -14 C 8.53125 -14 9.414062 -13.8125 10.25 -13.4375 C 11.09375 -13.0625 11.820312 -12.550781 12.4375 -11.90625 C 13.0625 -11.257812 13.550781 -10.5 13.90625 -9.625 C 14.269531 -8.75 14.453125 -7.816406 14.453125 -6.828125 C 14.453125 -5.835938 14.269531 -4.90625 13.90625 -4.03125 C 13.550781 -3.15625 13.0625 -2.390625 12.4375 -1.734375 C 11.820312 -1.085938 11.09375 -0.578125 10.25 -0.203125 C 9.414062 0.160156 8.53125 0.34375 7.59375 0.34375 Z M 7.59375 -11.515625 C 7.039062 -11.515625 6.515625 -11.390625 6.015625 -11.140625 C 5.523438 -10.890625 5.09375 -10.554688 4.71875 -10.140625 C 4.351562 -9.722656 4.066406 -9.226562 3.859375 -8.65625 C 3.648438 -8.082031 3.546875 -7.472656 3.546875 -6.828125 C 3.546875 -6.179688 3.648438 -5.570312 3.859375 -5 C 4.066406 -4.425781 4.351562 -3.925781 4.71875 -3.5 C 5.09375 -3.070312 5.523438 -2.734375 6.015625 -2.484375 C 6.515625 -2.234375 7.039062 -2.109375 7.59375 -2.109375 C 8.144531 -2.109375 8.664062 -2.234375 9.15625 -2.484375 C 9.65625 -2.734375 10.085938 -3.070312 10.453125 -3.5 C 10.816406 -3.925781 11.101562 -4.425781 11.3125 -5 C 11.519531 -5.570312 11.625 -6.179688 11.625 -6.828125 C 11.625 -7.472656 11.519531 -8.082031 11.3125 -8.65625 C 11.101562 -9.226562 10.816406 -9.722656 10.453125 -10.140625 C 10.085938 -10.554688 9.65625 -10.890625 9.15625 -11.140625 C 8.664062 -11.390625 8.144531 -11.515625 7.59375 -11.515625 Z M 7.59375 -11.515625 "/></g></g></g><g fill="#000000" fill-opacity="1"><g transform="translate(93.680099, 42.285918)"><g><path d="M 4.3125 0 L 1.546875 0 L 1.546875 -13.6875 L 3.734375 -13.6875 L 4.3125 -12.484375 C 4.769531 -12.921875 5.320312 -13.28125 5.96875 -13.5625 C 6.613281 -13.851562 7.316406 -14 8.078125 -14 C 8.578125 -14 9.140625 -13.921875 9.765625 -13.765625 C 10.398438 -13.609375 10.988281 -13.320312 11.53125 -12.90625 C 12.070312 -12.488281 12.523438 -11.90625 12.890625 -11.15625 C 13.265625 -10.414062 13.453125 -9.457031 13.453125 -8.28125 L 13.453125 0 L 10.828125 0 L 10.828125 -8.3125 C 10.828125 -8.90625 10.734375 -9.40625 10.546875 -9.8125 C 10.367188 -10.21875 10.128906 -10.546875 9.828125 -10.796875 C 9.535156 -11.046875 9.203125 -11.222656 8.828125 -11.328125 C 8.460938 -11.429688 8.082031 -11.484375 7.6875 -11.484375 C 7.375 -11.484375 7.023438 -11.425781 6.640625 -11.3125 C 6.253906 -11.195312 5.890625 -11.007812 5.546875 -10.75 C 5.203125 -10.5 4.910156 -10.175781 4.671875 -9.78125 C 4.429688 -9.394531 4.3125 -8.914062 4.3125 -8.34375 Z M 4.3125 0 "/></g></g></g><g fill="#000000" fill-opacity="1"><g transform="translate(108.926074, 42.285918)"><g><path d="M 3.578125 0 L 3.578125 -11.203125 L 1.234375 -11.203125 L 1.234375 -13.109375 L 3.578125 -13.6875 L 3.578125 -15.34375 C 3.578125 -16.3125 3.695312 -17.148438 3.9375 -17.859375 C 4.1875 -18.578125 4.523438 -19.164062 4.953125 -19.625 C 5.378906 -20.082031 5.867188 -20.421875 6.421875 -20.640625 C 6.972656 -20.859375 7.566406 -20.96875 8.203125 -20.96875 C 8.984375 -20.96875 9.769531 -20.804688 10.5625 -20.484375 L 10.5625 -18.453125 C 9.882812 -18.660156 9.296875 -18.765625 8.796875 -18.765625 C 8.015625 -18.765625 7.410156 -18.523438 6.984375 -18.046875 C 6.554688 -17.578125 6.34375 -16.816406 6.34375 -15.765625 L 6.34375 -13.6875 L 10.5625 -13.6875 L 10.5625 -11.203125 L 6.34375 -11.203125 L 6.34375 0 Z M 3.578125 0 "/></g></g></g><g fill="#000000" fill-opacity="1"><g transform="translate(119.77527, 42.285918)"><g><path d="M 4.484375 0 L 1.71875 0 L 1.71875 -13.6875 L 4.453125 -13.6875 Z M 3.078125 -16.65625 C 2.585938 -16.65625 2.171875 -16.828125 1.828125 -17.171875 C 1.484375 -17.523438 1.3125 -17.953125 1.3125 -18.453125 C 1.3125 -18.941406 1.484375 -19.359375 1.828125 -19.703125 C 2.171875 -20.046875 2.585938 -20.21875 3.078125 -20.21875 C 3.578125 -20.21875 4 -20.046875 4.34375 -19.703125 C 4.6875 -19.359375 4.859375 -18.941406 4.859375 -18.453125 C 4.859375 -17.953125 4.6875 -17.523438 4.34375 -17.171875 C 4 -16.828125 3.578125 -16.65625 3.078125 -16.65625 Z M 3.078125 -16.65625 "/></g></g></g><g fill="#000000" fill-opacity="1"><g transform="translate(125.770879, 42.285918)"><g><path d="M 7.828125 -0.6875 C 6.867188 -0.6875 5.988281 -0.863281 5.1875 -1.21875 C 4.394531 -1.570312 3.703125 -2.054688 3.109375 -2.671875 C 2.523438 -3.285156 2.066406 -4 1.734375 -4.8125 C 1.398438 -5.625 1.234375 -6.484375 1.234375 -7.390625 C 1.234375 -8.304688 1.398438 -9.164062 1.734375 -9.96875 C 2.066406 -10.769531 2.523438 -11.46875 3.109375 -12.0625 C 3.703125 -12.664062 4.394531 -13.140625 5.1875 -13.484375 C 5.988281 -13.828125 6.867188 -14 7.828125 -14 C 8.773438 -14 9.601562 -13.851562 10.3125 -13.5625 C 11.019531 -13.28125 11.640625 -12.875 12.171875 -12.34375 L 12.734375 -13.6875 L 14.90625 -13.6875 C 14.90625 -13.625 14.90625 -13.550781 14.90625 -13.46875 C 14.90625 -13.382812 14.90625 -13.21875 14.90625 -12.96875 C 14.90625 -12.71875 14.90625 -12.363281 14.90625 -11.90625 C 14.90625 -11.445312 14.90625 -10.816406 14.90625 -10.015625 C 14.90625 -9.222656 14.910156 -8.226562 14.921875 -7.03125 C 14.929688 -5.832031 14.9375 -4.375 14.9375 -2.65625 C 14.9375 -2.082031 14.914062 -1.523438 14.875 -0.984375 C 14.84375 -0.441406 14.765625 0.078125 14.640625 0.578125 C 14.515625 1.085938 14.332031 1.570312 14.09375 2.03125 C 13.851562 2.5 13.535156 2.957031 13.140625 3.40625 C 12.378906 4.195312 11.515625 4.726562 10.546875 5 C 9.585938 5.28125 8.578125 5.421875 7.515625 5.421875 C 6.597656 5.421875 5.734375 5.304688 4.921875 5.078125 C 4.117188 4.847656 3.390625 4.546875 2.734375 4.171875 L 2.734375 1.078125 C 3.117188 1.628906 3.710938 2.078125 4.515625 2.421875 C 5.328125 2.765625 6.25 2.9375 7.28125 2.9375 C 7.96875 2.9375 8.601562 2.847656 9.1875 2.671875 C 9.78125 2.492188 10.296875 2.21875 10.734375 1.84375 C 11.171875 1.46875 11.519531 0.984375 11.78125 0.390625 C 12.039062 -0.191406 12.171875 -0.894531 12.171875 -1.71875 L 12.171875 -2.25 C 11.941406 -2.039062 11.660156 -1.84375 11.328125 -1.65625 C 10.992188 -1.46875 10.628906 -1.300781 10.234375 -1.15625 C 9.847656 -1.007812 9.441406 -0.894531 9.015625 -0.8125 C 8.597656 -0.726562 8.203125 -0.6875 7.828125 -0.6875 Z M 8.078125 -11.484375 C 7.523438 -11.484375 7 -11.378906 6.5 -11.171875 C 6.007812 -10.960938 5.578125 -10.671875 5.203125 -10.296875 C 4.835938 -9.921875 4.550781 -9.484375 4.34375 -8.984375 C 4.132812 -8.492188 4.03125 -7.960938 4.03125 -7.390625 C 4.03125 -6.828125 4.132812 -6.289062 4.34375 -5.78125 C 4.550781 -5.28125 4.835938 -4.84375 5.203125 -4.46875 C 5.578125 -4.09375 6.007812 -3.796875 6.5 -3.578125 C 7 -3.359375 7.523438 -3.25 8.078125 -3.25 C 8.628906 -3.25 9.148438 -3.332031 9.640625 -3.5 C 10.140625 -3.675781 10.570312 -3.9375 10.9375 -4.28125 C 11.300781 -4.625 11.585938 -5.050781 11.796875 -5.5625 C 12.003906 -6.082031 12.109375 -6.691406 12.109375 -7.390625 C 12.109375 -8.140625 12.003906 -8.773438 11.796875 -9.296875 C 11.585938 -9.816406 11.300781 -10.238281 10.9375 -10.5625 C 10.570312 -10.882812 10.140625 -11.117188 9.640625 -11.265625 C 9.148438 -11.410156 8.628906 -11.484375 8.078125 -11.484375 Z M 8.078125 -11.484375 "/></g></g></g><g fill="#000000" fill-opacity="1"><g transform="translate(142.644235, 42.285918)"><g><path d="M 10.859375 -1.234375 C 10.378906 -0.796875 9.816406 -0.429688 9.171875 -0.140625 C 8.535156 0.140625 7.832031 0.28125 7.0625 0.28125 C 6.5625 0.28125 5.992188 0.207031 5.359375 0.0625 C 4.734375 -0.0703125 4.148438 -0.347656 3.609375 -0.765625 C 3.066406 -1.191406 2.609375 -1.769531 2.234375 -2.5 C 1.867188 -3.226562 1.6875 -4.1875 1.6875 -5.375 L 1.6875 -13.6875 L 4.3125 -13.6875 L 4.3125 -5.375 C 4.3125 -4.78125 4.398438 -4.273438 4.578125 -3.859375 C 4.765625 -3.453125 5.003906 -3.125 5.296875 -2.875 C 5.585938 -2.632812 5.925781 -2.457031 6.3125 -2.34375 C 6.695312 -2.226562 7.085938 -2.171875 7.484375 -2.171875 C 7.785156 -2.171875 8.128906 -2.226562 8.515625 -2.34375 C 8.910156 -2.457031 9.28125 -2.640625 9.625 -2.890625 C 9.96875 -3.148438 10.257812 -3.476562 10.5 -3.875 C 10.738281 -4.28125 10.859375 -4.769531 10.859375 -5.34375 L 10.859375 -13.6875 L 13.625 -13.6875 L 13.625 0 L 11.421875 0 Z M 10.859375 -1.234375 "/></g></g></g><g fill="#000000" fill-opacity="1"><g transform="translate(157.918766, 42.285918)"><g><path d="M 9.859375 -11.140625 C 9.722656 -11.191406 9.585938 -11.25 9.453125 -11.3125 C 9.335938 -11.351562 9.203125 -11.390625 9.046875 -11.421875 C 8.898438 -11.460938 8.738281 -11.484375 8.5625 -11.484375 C 8.007812 -11.484375 7.492188 -11.390625 7.015625 -11.203125 C 6.546875 -11.023438 6.140625 -10.785156 5.796875 -10.484375 C 5.453125 -10.179688 5.179688 -9.820312 4.984375 -9.40625 C 4.785156 -9 4.6875 -8.566406 4.6875 -8.109375 L 4.65625 0 L 1.890625 0 L 1.890625 -13.6875 L 4.078125 -13.6875 L 4.65625 -12.171875 C 5.039062 -12.722656 5.539062 -13.164062 6.15625 -13.5 C 6.769531 -13.832031 7.546875 -14 8.484375 -14 C 9.085938 -14 9.78125 -13.910156 10.5625 -13.734375 Z M 9.859375 -11.140625 "/></g></g></g><g fill="#000000" fill-opacity="1"><g transform="translate(168.710855, 42.285918)"><g><path d="M 14.5625 -13.6875 L 14.5625 0 L 12.21875 0 L 11.796875 -1.578125 C 11.316406 -0.941406 10.707031 -0.460938 9.96875 -0.140625 C 9.226562 0.179688 8.476562 0.34375 7.71875 0.34375 C 6.757812 0.34375 5.863281 0.160156 5.03125 -0.203125 C 4.207031 -0.578125 3.484375 -1.085938 2.859375 -1.734375 C 2.242188 -2.390625 1.753906 -3.15625 1.390625 -4.03125 C 1.035156 -4.90625 0.859375 -5.835938 0.859375 -6.828125 C 0.859375 -7.816406 1.035156 -8.75 1.390625 -9.625 C 1.753906 -10.5 2.242188 -11.257812 2.859375 -11.90625 C 3.484375 -12.550781 4.207031 -13.0625 5.03125 -13.4375 C 5.863281 -13.8125 6.757812 -14 7.71875 -14 C 8.476562 -14 9.207031 -13.847656 9.90625 -13.546875 C 10.613281 -13.253906 11.242188 -12.796875 11.796875 -12.171875 L 12.21875 -13.6875 Z M 7.71875 -2.109375 C 8.269531 -2.109375 8.789062 -2.234375 9.28125 -2.484375 C 9.78125 -2.734375 10.207031 -3.070312 10.5625 -3.5 C 10.925781 -3.925781 11.210938 -4.425781 11.421875 -5 C 11.628906 -5.570312 11.734375 -6.179688 11.734375 -6.828125 C 11.734375 -7.472656 11.628906 -8.082031 11.421875 -8.65625 C 11.210938 -9.226562 10.925781 -9.726562 10.5625 -10.15625 C 10.207031 -10.582031 9.78125 -10.921875 9.28125 -11.171875 C 8.789062 -11.421875 8.269531 -11.546875 7.71875 -11.546875 C 7.164062 -11.546875 6.640625 -11.421875 6.140625 -11.171875 C 5.640625 -10.921875 5.207031 -10.582031 4.84375 -10.15625 C 4.488281 -9.726562 4.207031 -9.226562 4 -8.65625 C 3.789062 -8.082031 3.6875 -7.472656 3.6875 -6.828125 C 3.6875 -6.179688 3.789062 -5.570312 4 -5 C 4.207031 -4.425781 4.488281 -3.925781 4.84375 -3.5 C 5.207031 -3.070312 5.640625 -2.734375 6.140625 -2.484375 C 6.640625 -2.234375 7.164062 -2.109375 7.71875 -2.109375 Z M 7.71875 -2.109375 "/></g></g></g><g fill="#000000" fill-opacity="1"><g transform="translate(184.499295, 42.285918)"><g><path d="M 9.03125 -0.03125 C 8.25 0.238281 7.472656 0.398438 6.703125 0.453125 C 5.941406 0.515625 5.253906 0.40625 4.640625 0.125 C 4.035156 -0.144531 3.539062 -0.628906 3.15625 -1.328125 C 2.78125 -2.023438 2.59375 -3 2.59375 -4.25 L 2.59375 -11.203125 L 0.59375 -11.203125 L 0.59375 -13.109375 L 2.59375 -13.6875 L 2.59375 -17.34375 L 5.375 -17.34375 L 5.375 -13.6875 L 9.078125 -13.6875 L 9.078125 -11.203125 L 5.375 -11.203125 L 5.375 -3.828125 C 5.375 -3.367188 5.425781 -3.003906 5.53125 -2.734375 C 5.632812 -2.472656 5.804688 -2.273438 6.046875 -2.140625 C 6.296875 -2.003906 6.617188 -1.9375 7.015625 -1.9375 C 7.421875 -1.9375 7.910156 -1.976562 8.484375 -2.0625 Z M 9.03125 -0.03125 "/></g></g></g><g fill="#000000" fill-opacity="1"><g transform="translate(194.263566, 42.285918)"><g><path d="M 7.59375 0.34375 C 6.644531 0.34375 5.753906 0.160156 4.921875 -0.203125 C 4.097656 -0.578125 3.375 -1.085938 2.75 -1.734375 C 2.132812 -2.390625 1.644531 -3.15625 1.28125 -4.03125 C 0.925781 -4.90625 0.75 -5.835938 0.75 -6.828125 C 0.75 -7.816406 0.925781 -8.75 1.28125 -9.625 C 1.644531 -10.5 2.132812 -11.257812 2.75 -11.90625 C 3.375 -12.550781 4.097656 -13.0625 4.921875 -13.4375 C 5.753906 -13.8125 6.644531 -14 7.59375 -14 C 8.53125 -14 9.414062 -13.8125 10.25 -13.4375 C 11.09375 -13.0625 11.820312 -12.550781 12.4375 -11.90625 C 13.0625 -11.257812 13.550781 -10.5 13.90625 -9.625 C 14.269531 -8.75 14.453125 -7.816406 14.453125 -6.828125 C 14.453125 -5.835938 14.269531 -4.90625 13.90625 -4.03125 C 13.550781 -3.15625 13.0625 -2.390625 12.4375 -1.734375 C 11.820312 -1.085938 11.09375 -0.578125 10.25 -0.203125 C 9.414062 0.160156 8.53125 0.34375 7.59375 0.34375 Z M 7.59375 -11.515625 C 7.039062 -11.515625 6.515625 -11.390625 6.015625 -11.140625 C 5.523438 -10.890625 5.09375 -10.554688 4.71875 -10.140625 C 4.351562 -9.722656 4.066406 -9.226562 3.859375 -8.65625 C 3.648438 -8.082031 3.546875 -7.472656 3.546875 -6.828125 C 3.546875 -6.179688 3.648438 -5.570312 3.859375 -5 C 4.066406 -4.425781 4.351562 -3.925781 4.71875 -3.5 C 5.09375 -3.070312 5.523438 -2.734375 6.015625 -2.484375 C 6.515625 -2.234375 7.039062 -2.109375 7.59375 -2.109375 C 8.144531 -2.109375 8.664062 -2.234375 9.15625 -2.484375 C 9.65625 -2.734375 10.085938 -3.070312 10.453125 -3.5 C 10.816406 -3.925781 11.101562 -4.425781 11.3125 -5 C 11.519531 -5.570312 11.625 -6.179688 11.625 -6.828125 C 11.625 -7.472656 11.519531 -8.082031 11.3125 -8.65625 C 11.101562 -9.226562 10.816406 -9.722656 10.453125 -10.140625 C 10.085938 -10.554688 9.65625 -10.890625 9.15625 -11.140625 C 8.664062 -11.390625 8.144531 -11.515625 7.59375 -11.515625 Z M 7.59375 -11.515625 "/></g></g></g><g fill="#000000" fill-opacity="1"><g transform="translate(209.338236, 42.285918)"><g><path d="M 9.859375 -11.140625 C 9.722656 -11.191406 9.585938 -11.25 9.453125 -11.3125 C 9.335938 -11.351562 9.203125 -11.390625 9.046875 -11.421875 C 8.898438 -11.460938 8.738281 -11.484375 8.5625 -11.484375 C 8.007812 -11.484375 7.492188 -11.390625 7.015625 -11.203125 C 6.546875 -11.023438 6.140625 -10.785156 5.796875 -10.484375 C 5.453125 -10.179688 5.179688 -9.820312 4.984375 -9.40625 C 4.785156 -9 4.6875 -8.566406 4.6875 -8.109375 L 4.65625 0 L 1.890625 0 L 1.890625 -13.6875 L 4.078125 -13.6875 L 4.65625 -12.171875 C 5.039062 -12.722656 5.539062 -13.164062 6.15625 -13.5 C 6.769531 -13.832031 7.546875 -14 8.484375 -14 C 9.085938 -14 9.78125 -13.910156 10.5625 -13.734375 Z M 9.859375 -11.140625 "/></g></g></g><g clip-path="url(#5b7baf4ee9)"><path fill="#bcdeff" d="M 8.683594 42.839844 L 11.152344 45.296875 L 6.964844 47.011719 Z M 8.683594 42.839844 " fill-opacity="1" fill-rule="nonzero"/></g><path fill="#bcdeff" d="M 20.121094 26.894531 L 30.828125 16.222656 L 38.769531 8.308594 L 42.28125 11.808594 L 15.375 38.628906 L 11.859375 35.128906 L 20.121094 26.894531 " fill-opacity="1" fill-rule="nonzero"/><path fill="#bcdeff" d="M 37.851562 23.226562 L 18.886719 42.132812 L 15.375 38.628906 L 42.28125 11.808594 L 45.792969 15.3125 L 37.851562 23.226562 " fill-opacity="1" fill-rule="nonzero"/><path fill="#ffffff" d="M 15.375 38.628906 L 18.886719 42.132812 L 11.152344 45.296875 L 8.683594 42.839844 L 11.859375 35.128906 L 15.375 38.628906 " fill-opacity="1" fill-rule="nonzero"/><path fill="#ffffff" d="M 50.101562 4.015625 C 52.042969 5.949219 51.992188 9.132812 49.988281 11.128906 L 46.648438 14.460938 L 45.792969 15.3125 L 42.28125 11.808594 L 38.769531 8.308594 L 39.621094 7.457031 L 42.964844 4.125 C 43.964844 3.128906 45.265625 2.617188 46.554688 2.597656 C 47.847656 2.574219 49.132812 3.046875 50.101562 4.015625 " fill-opacity="1" fill-rule="nonzero"/><path fill="#ffffff" d="M 36.800781 43.523438 L 29.492188 36.238281 L 27.144531 33.898438 L 37.851562 23.226562 L 50.992188 36.324219 L 40.285156 46.996094 L 36.800781 43.523438 " fill-opacity="1" fill-rule="nonzero"/><path fill="#ffffff" d="M 17.171875 13.285156 C 17.828125 12.628906 17.828125 11.570312 17.171875 10.914062 C 16.515625 10.257812 15.449219 10.257812 14.792969 10.914062 C 14.136719 11.570312 14.136719 12.628906 14.792969 13.285156 C 15.449219 13.941406 16.515625 13.941406 17.171875 13.285156 Z M 18.53125 25.3125 L 14.878906 21.671875 L 6.382812 13.203125 L 17.085938 2.53125 L 30.828125 16.222656 L 20.121094 26.894531 L 18.53125 25.3125 " fill-opacity="1" fill-rule="nonzero"/><path fill="#0080ff" d="M 45.792969 15.945312 C 45.632812 15.945312 45.46875 15.882812 45.34375 15.761719 L 38.316406 8.757812 C 38.066406 8.507812 38.066406 8.105469 38.316406 7.859375 C 38.566406 7.609375 38.96875 7.609375 39.21875 7.859375 L 46.246094 14.863281 C 46.492188 15.109375 46.492188 15.511719 46.246094 15.761719 C 46.121094 15.882812 45.957031 15.945312 45.792969 15.945312 " fill-opacity="1" fill-rule="nonzero"/><g clip-path="url(#2ab62f81a3)"><path fill="#0080ff" d="M 18.886719 42.769531 C 18.722656 42.769531 18.558594 42.707031 18.4375 42.582031 C 18.1875 42.332031 18.1875 41.929688 18.4375 41.683594 L 49.539062 10.679688 C 50.390625 9.832031 50.867188 8.71875 50.886719 7.539062 C 50.90625 6.367188 50.464844 5.277344 49.652344 4.464844 C 48.835938 3.652344 47.738281 3.210938 46.566406 3.230469 C 45.382812 3.25 44.265625 3.726562 43.414062 4.574219 L 12.308594 35.578125 C 12.0625 35.824219 11.660156 35.824219 11.410156 35.578125 C 11.160156 35.328125 11.160156 34.929688 11.410156 34.679688 L 42.511719 3.675781 C 43.597656 2.59375 45.03125 1.984375 46.546875 1.960938 C 48.066406 1.9375 49.488281 2.507812 50.550781 3.566406 C 51.613281 4.625 52.183594 6.042969 52.160156 7.558594 C 52.136719 9.070312 51.527344 10.496094 50.441406 11.578125 L 19.335938 42.582031 C 19.210938 42.707031 19.050781 42.769531 18.886719 42.769531 " fill-opacity="1" fill-rule="nonzero"/></g><path fill="#0080ff" d="M 15.367188 39.273438 C 15.203125 39.273438 15.039062 39.210938 14.914062 39.085938 C 14.667969 38.839844 14.667969 38.4375 14.914062 38.1875 L 41.832031 11.359375 C 42.078125 11.113281 42.484375 11.113281 42.730469 11.359375 C 42.980469 11.609375 42.980469 12.011719 42.730469 12.257812 L 15.816406 39.085938 C 15.691406 39.210938 15.53125 39.273438 15.367188 39.273438 " fill-opacity="1" fill-rule="nonzero"/><g clip-path="url(#f01fd2e9be)"><path fill="#0080ff" d="M 12.085938 36.253906 L 8.132812 45.847656 L 17.757812 41.90625 Z M 6.964844 47.644531 C 6.800781 47.644531 6.636719 47.582031 6.515625 47.460938 C 6.335938 47.277344 6.28125 47.007812 6.375 46.769531 L 11.269531 34.886719 C 11.351562 34.691406 11.527344 34.546875 11.734375 34.507812 C 11.945312 34.464844 12.160156 34.53125 12.308594 34.679688 L 19.335938 41.683594 C 19.488281 41.832031 19.550781 42.050781 19.511719 42.257812 C 19.46875 42.464844 19.324219 42.640625 19.128906 42.71875 L 7.207031 47.597656 C 7.128906 47.628906 7.046875 47.644531 6.964844 47.644531 " fill-opacity="1" fill-rule="nonzero"/></g><g clip-path="url(#2bf8f0e3b2)"><path fill="#0080ff" d="M 40.285156 47.628906 C 40.121094 47.628906 39.957031 47.566406 39.832031 47.445312 L 36.351562 43.972656 L 32.695312 40.328125 L 26.695312 34.347656 C 26.449219 34.101562 26.449219 33.699219 26.695312 33.449219 C 26.945312 33.203125 27.347656 33.203125 27.597656 33.449219 L 40.285156 46.097656 L 50.089844 36.324219 L 37.402344 23.675781 C 37.152344 23.429688 37.152344 23.027344 37.402344 22.777344 C 37.652344 22.53125 38.054688 22.53125 38.304688 22.777344 L 51.441406 35.875 C 51.691406 36.121094 51.691406 36.523438 51.441406 36.773438 L 40.734375 47.445312 C 40.609375 47.566406 40.449219 47.628906 40.285156 47.628906 " fill-opacity="1" fill-rule="nonzero"/></g><g clip-path="url(#06581b1884)"><path fill="#0080ff" d="M 20.121094 27.53125 C 19.957031 27.53125 19.792969 27.46875 19.671875 27.34375 L 5.929688 13.648438 C 5.683594 13.402344 5.683594 13 5.929688 12.753906 L 16.636719 2.082031 C 16.886719 1.832031 17.289062 1.832031 17.539062 2.082031 L 31.277344 15.773438 C 31.527344 16.023438 31.527344 16.425781 31.277344 16.671875 C 31.027344 16.921875 30.625 16.921875 30.375 16.671875 L 17.085938 3.429688 L 7.28125 13.203125 L 20.570312 26.445312 C 20.820312 26.695312 20.820312 27.097656 20.570312 27.34375 C 20.445312 27.46875 20.285156 27.53125 20.121094 27.53125 " fill-opacity="1" fill-rule="nonzero"/></g><path fill="#0080ff" d="M 15.984375 11.058594 C 15.714844 11.058594 15.449219 11.160156 15.246094 11.363281 C 14.835938 11.769531 14.835938 12.429688 15.246094 12.835938 C 15.441406 13.035156 15.703125 13.140625 15.984375 13.140625 C 16.261719 13.140625 16.523438 13.035156 16.722656 12.835938 C 16.917969 12.640625 17.027344 12.378906 17.027344 12.101562 C 17.027344 11.820312 16.917969 11.558594 16.722656 11.363281 C 16.519531 11.160156 16.25 11.058594 15.984375 11.058594 Z M 15.984375 14.414062 C 15.363281 14.414062 14.78125 14.171875 14.34375 13.734375 C 13.4375 12.832031 13.4375 11.367188 14.34375 10.464844 C 15.246094 9.5625 16.71875 9.5625 17.625 10.464844 C 18.0625 10.902344 18.300781 11.484375 18.300781 12.101562 C 18.300781 12.71875 18.0625 13.296875 17.625 13.734375 C 17.183594 14.171875 16.601562 14.414062 15.984375 14.414062 " fill-opacity="1" fill-rule="nonzero"/><path fill="#0080ff" d="M 14.878906 22.304688 C 14.714844 22.304688 14.550781 22.242188 14.429688 22.121094 C 14.179688 21.871094 14.179688 21.46875 14.429688 21.222656 L 21.160156 14.507812 C 21.410156 14.261719 21.8125 14.261719 22.0625 14.507812 C 22.3125 14.757812 22.3125 15.160156 22.0625 15.40625 L 15.328125 22.121094 C 15.203125 22.242188 15.042969 22.304688 14.878906 22.304688 " fill-opacity="1" fill-rule="nonzero"/><path fill="#0080ff" d="M 18.53125 25.949219 C 18.371094 25.949219 18.207031 25.886719 18.082031 25.761719 C 17.832031 25.511719 17.832031 25.113281 18.082031 24.863281 L 22.414062 20.542969 C 22.664062 20.296875 23.066406 20.296875 23.316406 20.542969 C 23.566406 20.792969 23.566406 21.195312 23.316406 21.441406 L 18.984375 25.761719 C 18.859375 25.886719 18.695312 25.949219 18.53125 25.949219 " fill-opacity="1" fill-rule="nonzero"/><path fill="#0080ff" d="M 29.492188 36.875 C 29.332031 36.875 29.167969 36.8125 29.042969 36.6875 C 28.792969 36.4375 28.792969 36.039062 29.042969 35.789062 L 33.375 31.46875 C 33.625 31.222656 34.027344 31.222656 34.277344 31.46875 C 34.527344 31.71875 34.527344 32.121094 34.277344 32.367188 L 29.945312 36.6875 C 29.820312 36.8125 29.65625 36.875 29.492188 36.875 " fill-opacity="1" fill-rule="nonzero"/><path fill="#0080ff" d="M 33.148438 40.515625 C 32.984375 40.515625 32.820312 40.453125 32.695312 40.328125 C 32.449219 40.082031 32.449219 39.679688 32.695312 39.429688 L 37.03125 35.113281 C 37.277344 34.863281 37.683594 34.863281 37.929688 35.113281 C 38.179688 35.359375 38.179688 35.761719 37.929688 36.007812 L 33.597656 40.328125 C 33.472656 40.453125 33.308594 40.515625 33.148438 40.515625 " fill-opacity="1" fill-rule="nonzero"/><path fill="#0080ff" d="M 36.800781 44.15625 C 36.636719 44.15625 36.472656 44.09375 36.351562 43.972656 C 36.101562 43.722656 36.101562 43.320312 36.351562 43.074219 L 43.085938 36.359375 C 43.332031 36.113281 43.734375 36.113281 43.984375 36.359375 C 44.234375 36.609375 44.234375 37.011719 43.984375 37.257812 L 37.25 43.972656 C 37.125 44.09375 36.964844 44.15625 36.800781 44.15625 " fill-opacity="1" fill-rule="nonzero"/><path fill="#0080ff" d="M 11.152344 45.933594 C 10.988281 45.933594 10.824219 45.871094 10.703125 45.746094 L 8.234375 43.289062 C 7.984375 43.039062 7.984375 42.636719 8.234375 42.390625 C 8.484375 42.140625 8.886719 42.140625 9.136719 42.390625 L 11.601562 44.847656 C 11.851562 45.097656 11.851562 45.5 11.601562 45.746094 C 11.476562 45.871094 11.316406 45.933594 11.152344 45.933594 " fill-opacity="1" fill-rule="nonzero"/></svg>