<?xml version="1.0" encoding="UTF-8" standalone="no"?>
<!-- Generated by IcoMoon.io -->

<svg
   xmlns:dc="http://purl.org/dc/elements/1.1/"
   xmlns:cc="http://creativecommons.org/ns#"
   xmlns:rdf="http://www.w3.org/1999/02/22-rdf-syntax-ns#"
   xmlns:svg="http://www.w3.org/2000/svg"
   xmlns="http://www.w3.org/2000/svg"
   xmlns:sodipodi="http://sodipodi.sourceforge.net/DTD/sodipodi-0.dtd"
   xmlns:inkscape="http://www.inkscape.org/namespaces/inkscape"
   version="1.1"
   width="20"
   height="20"
   viewBox="0 0 20 20"
   id="svg8"
   sodipodi:docname="lnr-layers.svg"
   inkscape:version="0.92.4 (unknown)">
  <metadata
     id="metadata14">
    <rdf:RDF>
      <cc:Work
         rdf:about="">
        <dc:format>image/svg+xml</dc:format>
        <dc:type
           rdf:resource="http://purl.org/dc/dcmitype/StillImage" />
      </cc:Work>
    </rdf:RDF>
  </metadata>
  <defs
     id="defs12" />
  <sodipodi:namedview
     pagecolor="#ffffff"
     bordercolor="#666666"
     borderopacity="1"
     objecttolerance="10"
     gridtolerance="10"
     guidetolerance="10"
     inkscape:pageopacity="0"
     inkscape:pageshadow="2"
     inkscape:window-width="1920"
     inkscape:window-height="1004"
     id="namedview10"
     showgrid="false"
     inkscape:zoom="11.8"
     inkscape:cx="10"
     inkscape:cy="10"
     inkscape:window-x="0"
     inkscape:window-y="0"
     inkscape:window-maximized="1"
     inkscape:current-layer="svg8" />
  <path
     fill="#000000"
     d="M10 12c-0.066 0-0.132-0.013-0.194-0.039l-9.5-4c-0.185-0.078-0.306-0.26-0.306-0.461s0.121-0.383 0.306-0.461l9.5-4c0.124-0.052 0.264-0.052 0.388 0l9.5 4c0.185 0.078 0.306 0.26 0.306 0.461s-0.121 0.383-0.306 0.461l-9.5 4c-0.062 0.026-0.128 0.039-0.194 0.039zM1.788 7.5l8.212 3.457 8.212-3.457-8.212-3.457-8.212 3.457z"
     id="path2"
     style="fill:#00a98f;fill-opacity:1" />
  <path
     fill="#000000"
     d="M10 15c-0.066 0-0.132-0.013-0.194-0.039l-9.5-4c-0.254-0.107-0.374-0.4-0.267-0.655s0.4-0.374 0.655-0.267l9.306 3.918 9.306-3.918c0.254-0.107 0.548 0.012 0.655 0.267s-0.012 0.548-0.267 0.655l-9.5 4c-0.062 0.026-0.128 0.039-0.194 0.039z"
     id="path4"
     style="fill:#00a98f;fill-opacity:1" />
  <path
     fill="#000000"
     d="M10 18c-0.066 0-0.132-0.013-0.194-0.039l-9.5-4c-0.254-0.107-0.374-0.4-0.267-0.655s0.4-0.374 0.655-0.267l9.306 3.918 9.306-3.918c0.254-0.107 0.548 0.012 0.655 0.267s-0.012 0.548-0.267 0.655l-9.5 4c-0.062 0.026-0.128 0.039-0.194 0.039z"
     id="path6"
     style="fill:#00a98f;fill-opacity:1" />
</svg>
