<svg xmlns="http://www.w3.org/2000/svg" xmlns:xlink="http://www.w3.org/1999/xlink" width="40" zoomAndPan="magnify" viewBox="0 0 30 30.000001" height="40" preserveAspectRatio="xMidYMid meet" version="1.0"><defs><filter x="0%" y="0%" width="100%" height="100%" id="id1"><feColorMatrix values="0 0 0 0 1 0 0 0 0 1 0 0 0 0 1 0 0 0 1 0" color-interpolation-filters="sRGB"/></filter><clipPath id="id2"><path d="M 0.484375 0 L 29.515625 0 L 29.515625 29.03125 L 0.484375 29.03125 Z M 0.484375 0 " clip-rule="nonzero"/></clipPath><clipPath id="id3"><path d="M 0.484375 0 L 13 0 L 13 29.03125 L 0.484375 29.03125 Z M 0.484375 0 " clip-rule="nonzero"/></clipPath><mask id="id4"><g filter="url(#id1)"><rect x="-3" width="36" fill="#000000" y="-3" height="36.000001" fill-opacity="0.2471"/></g></mask><clipPath id="id5"><path d="M 0.484375 0 L 12.097656 0 L 12.097656 29.03125 L 0.484375 29.03125 Z M 0.484375 0 " clip-rule="nonzero"/></clipPath><clipPath id="id6"><rect x="0" width="13" y="0" height="30"/></clipPath><clipPath id="id7"><path d="M 3.386719 4 L 26.613281 4 L 26.613281 25 L 3.386719 25 Z M 3.386719 4 " clip-rule="nonzero"/></clipPath></defs><g clip-path="url(#id2)"><path fill="#ffffff" d="M 0.484375 0 L 29.515625 0 L 29.515625 101.613281 L 0.484375 101.613281 Z M 0.484375 0 " fill-opacity="1" fill-rule="nonzero"/><path fill="#ffffff" d="M 0.484375 0 L 29.515625 0 L 29.515625 29.03125 L 0.484375 29.03125 Z M 0.484375 0 " fill-opacity="1" fill-rule="nonzero"/><path fill="#ffffff" d="M 0.484375 0 L 29.515625 0 L 29.515625 29.03125 L 0.484375 29.03125 Z M 0.484375 0 " fill-opacity="1" fill-rule="nonzero"/><path fill="#ffffff" d="M 0.484375 0 L 29.515625 0 L 29.515625 29.03125 L 0.484375 29.03125 Z M 0.484375 0 " fill-opacity="1" fill-rule="nonzero"/></g><g clip-path="url(#id3)"><g mask="url(#id4)"><g transform="matrix(1, 0, 0, 1, 0, 0.000000000000005692)"><g clip-path="url(#id6)"><g clip-path="url(#id5)"><path fill="#0080ff" d="M 0.484375 0 L 12.097656 0 L 12.097656 29.03125 L 0.484375 29.03125 L 0.484375 0 " fill-opacity="1" fill-rule="nonzero"/></g></g></g></g></g><g clip-path="url(#id7)"><path fill="#0080ff" d="M 26.226562 20.710938 L 25.839844 20.710938 L 25.839844 12.582031 L 21.957031 12.582031 C 23.128906 11.777344 23.902344 10.429688 23.902344 8.902344 C 23.902344 6.449219 21.90625 4.453125 19.453125 4.453125 C 17.925781 4.453125 16.578125 5.226562 15.773438 6.398438 L 15.773438 4.453125 L 9.195312 4.453125 L 9.195312 20.710938 L 7.644531 20.710938 L 7.644531 5.613281 C 7.644531 5.398438 7.472656 5.226562 7.257812 5.226562 L 6.429688 5.226562 C 6.257812 4.558594 5.65625 4.066406 4.933594 4.066406 C 4.082031 4.066406 3.386719 4.757812 3.386719 5.613281 C 3.386719 6.46875 4.082031 7.160156 4.933594 7.160156 C 5.65625 7.160156 6.257812 6.664062 6.429688 6 L 6.871094 6 L 6.871094 21.097656 C 6.871094 21.3125 7.042969 21.484375 7.257812 21.484375 L 9.980469 21.484375 C 9.503906 21.835938 9.195312 22.398438 9.195312 23.03125 C 9.195312 24.097656 10.0625 24.96875 11.128906 24.96875 C 12.195312 24.96875 13.066406 24.097656 13.066406 23.03125 C 13.066406 22.398438 12.753906 21.835938 12.277344 21.484375 L 21.59375 21.484375 C 21.117188 21.835938 20.804688 22.398438 20.804688 23.03125 C 20.804688 24.097656 21.675781 24.96875 22.742188 24.96875 C 23.808594 24.96875 24.675781 24.097656 24.675781 23.03125 C 24.675781 22.398438 24.367188 21.835938 23.890625 21.484375 L 26.226562 21.484375 C 26.441406 21.484375 26.613281 21.3125 26.613281 21.097656 C 26.613281 20.882812 26.441406 20.710938 26.226562 20.710938 Z M 4.933594 6.386719 C 4.507812 6.386719 4.160156 6.039062 4.160156 5.613281 C 4.160156 5.1875 4.507812 4.839844 4.933594 4.839844 C 5.222656 4.839844 5.46875 4.996094 5.601562 5.226562 L 5.324219 5.226562 C 5.109375 5.226562 4.933594 5.398438 4.933594 5.613281 C 4.933594 5.828125 5.109375 6 5.324219 6 L 5.601562 6 C 5.46875 6.230469 5.222656 6.386719 4.933594 6.386719 Z M 11.128906 24.195312 C 10.488281 24.195312 9.96875 23.671875 9.96875 23.03125 C 9.96875 22.390625 10.488281 21.871094 11.128906 21.871094 C 11.769531 21.871094 12.289062 22.390625 12.289062 23.03125 C 12.289062 23.671875 11.769531 24.195312 11.128906 24.195312 Z M 22.742188 24.195312 C 22.101562 24.195312 21.582031 23.671875 21.582031 23.03125 C 21.582031 22.390625 22.101562 21.871094 22.742188 21.871094 C 23.382812 21.871094 23.902344 22.390625 23.902344 23.03125 C 23.902344 23.671875 23.382812 24.195312 22.742188 24.195312 Z M 19.644531 13.355469 L 20.804688 13.355469 L 20.804688 14.902344 L 19.644531 14.902344 Z M 19.453125 5.226562 C 21.480469 5.226562 23.128906 6.875 23.128906 8.902344 C 23.128906 10.929688 21.480469 12.582031 19.453125 12.582031 C 17.425781 12.582031 15.773438 10.929688 15.773438 8.902344 C 15.773438 6.875 17.425781 5.226562 19.453125 5.226562 Z M 16.949219 12.582031 L 15.773438 12.582031 L 15.773438 11.40625 C 16.089844 11.867188 16.488281 12.265625 16.949219 12.582031 Z M 13.066406 5.226562 L 13.066406 6.773438 L 11.902344 6.773438 L 11.902344 5.226562 Z M 9.96875 20.710938 L 9.96875 5.226562 L 11.128906 5.226562 L 11.128906 7.546875 L 13.839844 7.546875 L 13.839844 5.226562 L 15 5.226562 L 15 20.710938 Z M 15.773438 20.710938 L 15.773438 13.355469 L 18.871094 13.355469 L 18.871094 15.675781 L 21.582031 15.675781 L 21.582031 13.355469 L 25.066406 13.355469 L 25.066406 20.710938 Z M 15.773438 20.710938 " fill-opacity="1" fill-rule="nonzero"/></g></svg>