<svg xmlns="http://www.w3.org/2000/svg" xmlns:xlink="http://www.w3.org/1999/xlink" width="40" zoomAndPan="magnify" viewBox="0 0 30 30.000001" height="40" preserveAspectRatio="xMidYMid meet" version="1.0"><defs><filter x="0%" y="0%" width="100%" height="100%" id="id1"><feColorMatrix values="0 0 0 0 1 0 0 0 0 1 0 0 0 0 1 0 0 0 1 0" color-interpolation-filters="sRGB"/></filter><clipPath id="id2"><path d="M 0.484375 0 L 29.515625 0 L 29.515625 29.03125 L 0.484375 29.03125 Z M 0.484375 0 " clip-rule="nonzero"/></clipPath><clipPath id="id3"><path d="M 0.484375 17 L 29.515625 17 L 29.515625 29.03125 L 0.484375 29.03125 Z M 0.484375 17 " clip-rule="nonzero"/></clipPath><mask id="id4"><g filter="url(#id1)"><rect x="-3" width="36" fill="#000000" y="-3" height="36.000001" fill-opacity="0.2471"/></g></mask><clipPath id="id5"><path d="M 0.484375 0.652344 L 29.515625 0.652344 L 29.515625 12.03125 L 0.484375 12.03125 Z M 0.484375 0.652344 " clip-rule="nonzero"/></clipPath><clipPath id="id6"><rect x="0" width="30" y="0" height="13"/></clipPath><clipPath id="id7"><path d="M 6 2.902344 L 26.613281 2.902344 L 26.613281 15 L 6 15 Z M 6 2.902344 " clip-rule="nonzero"/></clipPath><clipPath id="id8"><path d="M 3.386719 16 L 5 16 L 5 18 L 3.386719 18 Z M 3.386719 16 " clip-rule="nonzero"/></clipPath><clipPath id="id9"><path d="M 3.386719 15 L 5 15 L 5 17 L 3.386719 17 Z M 3.386719 15 " clip-rule="nonzero"/></clipPath><clipPath id="id10"><path d="M 3.386719 14 L 5 14 L 5 16 L 3.386719 16 Z M 3.386719 14 " clip-rule="nonzero"/></clipPath><clipPath id="id11"><path d="M 25 15 L 26.613281 15 L 26.613281 17 L 25 17 Z M 25 15 " clip-rule="nonzero"/></clipPath><clipPath id="id12"><path d="M 25 16 L 26.613281 16 L 26.613281 18 L 25 18 Z M 25 16 " clip-rule="nonzero"/></clipPath><clipPath id="id13"><path d="M 25 17 L 26.613281 17 L 26.613281 19 L 25 19 Z M 25 17 " clip-rule="nonzero"/></clipPath><clipPath id="id14"><path d="M 13 25 L 15 25 L 15 26.128906 L 13 26.128906 Z M 13 25 " clip-rule="nonzero"/></clipPath><clipPath id="id15"><path d="M 15 25 L 17 25 L 17 26.128906 L 15 26.128906 Z M 15 25 " clip-rule="nonzero"/></clipPath><clipPath id="id16"><path d="M 14 25 L 16 25 L 16 26.128906 L 14 26.128906 Z M 14 25 " clip-rule="nonzero"/></clipPath></defs><g clip-path="url(#id2)"><path fill="#ffffff" d="M 0.484375 0 L 29.515625 0 L 29.515625 29.03125 L 0.484375 29.03125 Z M 0.484375 0 " fill-opacity="1" fill-rule="nonzero"/><path fill="#ffffff" d="M 0.484375 0 L 29.515625 0 L 29.515625 29.03125 L 0.484375 29.03125 Z M 0.484375 0 " fill-opacity="1" fill-rule="nonzero"/><path fill="#ffffff" d="M 0.484375 0 L 29.515625 0 L 29.515625 29.03125 L 0.484375 29.03125 Z M 0.484375 0 " fill-opacity="1" fill-rule="nonzero"/></g><g clip-path="url(#id3)"><g mask="url(#id4)"><g transform="matrix(1, 0, 0, 1, 0, 17)"><g clip-path="url(#id6)"><g clip-path="url(#id5)"><path fill="#0080ff" d="M 0.492188 0.652344 L 29.507812 0.652344 L 29.507812 12.265625 L 0.492188 12.265625 L 0.492188 0.652344 " fill-opacity="1" fill-rule="nonzero"/></g></g></g></g></g><path fill="#0080ff" d="M 14.996094 23.035156 C 19.691406 23.035156 23.515625 19.214844 23.515625 14.519531 C 23.515625 9.820312 19.691406 6 14.996094 6 C 10.300781 6 6.480469 9.820312 6.480469 14.519531 C 6.480469 19.214844 10.300781 23.035156 14.996094 23.035156 Z M 14.996094 6.773438 C 19.265625 6.773438 22.738281 10.25 22.738281 14.519531 C 22.738281 18.789062 19.265625 22.261719 14.996094 22.261719 C 10.726562 22.261719 7.253906 18.789062 7.253906 14.519531 C 7.253906 10.25 10.726562 6.773438 14.996094 6.773438 Z M 14.996094 6.773438 " fill-opacity="1" fill-rule="nonzero"/><path fill="#0080ff" d="M 14.996094 8.710938 C 15.210938 8.710938 15.382812 8.539062 15.382812 8.324219 L 15.382812 7.550781 C 15.382812 7.335938 15.210938 7.160156 14.996094 7.160156 C 14.78125 7.160156 14.609375 7.335938 14.609375 7.550781 L 14.609375 8.324219 C 14.609375 8.539062 14.78125 8.710938 14.996094 8.710938 Z M 14.996094 8.710938 " fill-opacity="1" fill-rule="nonzero"/><path fill="#0080ff" d="M 14.996094 20.324219 C 14.78125 20.324219 14.609375 20.5 14.609375 20.710938 L 14.609375 21.488281 C 14.609375 21.699219 14.78125 21.875 14.996094 21.875 C 15.210938 21.875 15.382812 21.699219 15.382812 21.488281 L 15.382812 20.710938 C 15.382812 20.5 15.210938 20.324219 14.996094 20.324219 Z M 14.996094 20.324219 " fill-opacity="1" fill-rule="nonzero"/><path fill="#0080ff" d="M 21.191406 14.90625 L 21.964844 14.90625 C 22.179688 14.90625 22.351562 14.730469 22.351562 14.519531 C 22.351562 14.304688 22.179688 14.132812 21.964844 14.132812 L 21.191406 14.132812 C 20.976562 14.132812 20.804688 14.304688 20.804688 14.519531 C 20.804688 14.730469 20.976562 14.90625 21.191406 14.90625 Z M 21.191406 14.90625 " fill-opacity="1" fill-rule="nonzero"/><path fill="#0080ff" d="M 8.800781 14.132812 L 8.027344 14.132812 C 7.8125 14.132812 7.640625 14.304688 7.640625 14.519531 C 7.640625 14.730469 7.8125 14.90625 8.027344 14.90625 L 8.800781 14.90625 C 9.015625 14.90625 9.1875 14.730469 9.1875 14.519531 C 9.1875 14.304688 9.015625 14.132812 8.800781 14.132812 Z M 8.800781 14.132812 " fill-opacity="1" fill-rule="nonzero"/><path fill="#0080ff" d="M 10.738281 18.777344 C 10.835938 18.777344 10.9375 18.738281 11.011719 18.664062 L 14.214844 15.460938 C 14.445312 15.597656 14.710938 15.679688 14.996094 15.679688 C 15.851562 15.679688 16.542969 14.984375 16.542969 14.132812 C 16.542969 13.410156 16.050781 12.808594 15.382812 12.636719 L 15.382812 10.644531 C 15.382812 10.433594 15.210938 10.257812 14.996094 10.257812 C 14.78125 10.257812 14.609375 10.433594 14.609375 10.644531 L 14.609375 12.636719 C 13.941406 12.808594 13.449219 13.410156 13.449219 14.132812 C 13.449219 14.417969 13.53125 14.683594 13.667969 14.914062 L 10.464844 18.117188 C 10.3125 18.265625 10.3125 18.511719 10.464844 18.664062 C 10.539062 18.738281 10.636719 18.777344 10.738281 18.777344 Z M 14.996094 13.355469 C 15.421875 13.355469 15.769531 13.703125 15.769531 14.132812 C 15.769531 14.558594 15.421875 14.90625 14.996094 14.90625 C 14.570312 14.90625 14.222656 14.558594 14.222656 14.132812 C 14.222656 13.703125 14.570312 13.355469 14.996094 13.355469 Z M 14.996094 13.355469 " fill-opacity="1" fill-rule="nonzero"/><g clip-path="url(#id7)"><path fill="#0080ff" d="M 7.285156 6.773438 L 10.351562 6.773438 C 10.5625 6.773438 10.738281 6.601562 10.738281 6.386719 C 10.738281 6.171875 10.5625 6 10.351562 6 L 8.296875 6 C 10.203125 4.496094 12.546875 3.675781 14.996094 3.675781 C 20.972656 3.675781 25.835938 8.539062 25.835938 14.519531 C 25.835938 14.730469 26.011719 14.90625 26.222656 14.90625 C 26.4375 14.90625 26.613281 14.730469 26.613281 14.519531 C 26.613281 8.113281 21.402344 2.902344 14.996094 2.902344 C 12.292969 2.902344 9.714844 3.835938 7.640625 5.539062 L 7.640625 3.289062 C 7.640625 3.078125 7.46875 2.902344 7.253906 2.902344 C 7.039062 2.902344 6.867188 3.078125 6.867188 3.289062 L 6.867188 6.773438 L 7.210938 6.773438 C 7.238281 6.777344 7.261719 6.777344 7.285156 6.773438 Z M 7.285156 6.773438 " fill-opacity="1" fill-rule="nonzero"/></g><path fill="#0080ff" d="M 5.246094 19.253906 C 5.152344 19.058594 4.921875 18.980469 4.730469 19.074219 C 4.535156 19.167969 4.457031 19.398438 4.550781 19.59375 C 4.617188 19.730469 4.753906 19.8125 4.898438 19.8125 C 4.953125 19.8125 5.011719 19.800781 5.066406 19.769531 C 5.257812 19.679688 5.339844 19.445312 5.246094 19.253906 Z M 5.246094 19.253906 " fill-opacity="1" fill-rule="nonzero"/><path fill="#0080ff" d="M 6.429688 21.152344 C 6.296875 20.984375 6.054688 20.953125 5.886719 21.085938 C 5.714844 21.214844 5.683594 21.460938 5.816406 21.625 C 5.894531 21.726562 6.011719 21.777344 6.121094 21.777344 C 6.207031 21.777344 6.289062 21.75 6.363281 21.695312 C 6.527344 21.5625 6.558594 21.320312 6.429688 21.152344 Z M 6.429688 21.152344 " fill-opacity="1" fill-rule="nonzero"/><path fill="#0080ff" d="M 5.789062 20.234375 C 5.675781 20.050781 5.4375 19.996094 5.253906 20.109375 C 5.074219 20.226562 5.019531 20.460938 5.132812 20.644531 C 5.203125 20.757812 5.332031 20.824219 5.460938 20.824219 C 5.53125 20.824219 5.601562 20.804688 5.664062 20.765625 C 5.847656 20.65625 5.902344 20.414062 5.789062 20.234375 Z M 5.789062 20.234375 " fill-opacity="1" fill-rule="nonzero"/><path fill="#0080ff" d="M 6.613281 21.992188 C 6.460938 22.136719 6.457031 22.382812 6.601562 22.535156 C 6.675781 22.617188 6.78125 22.65625 6.882812 22.65625 C 6.976562 22.65625 7.074219 22.621094 7.148438 22.546875 C 7.304688 22.402344 7.3125 22.15625 7.160156 22.003906 C 7.011719 21.847656 6.769531 21.84375 6.613281 21.992188 Z M 6.613281 21.992188 " fill-opacity="1" fill-rule="nonzero"/><path fill="#0080ff" d="M 7.429688 22.816406 C 7.292969 22.976562 7.3125 23.222656 7.472656 23.359375 C 7.546875 23.421875 7.636719 23.453125 7.726562 23.453125 C 7.832031 23.453125 7.941406 23.40625 8.019531 23.316406 C 8.160156 23.15625 8.140625 22.910156 7.976562 22.773438 C 7.8125 22.632812 7.570312 22.652344 7.429688 22.816406 Z M 7.429688 22.816406 " fill-opacity="1" fill-rule="nonzero"/><g clip-path="url(#id8)"><path fill="#0080ff" d="M 4.199219 17.625 C 4.402344 17.570312 4.53125 17.359375 4.480469 17.152344 C 4.425781 16.945312 4.21875 16.816406 4.007812 16.871094 C 3.804688 16.921875 3.675781 17.132812 3.730469 17.339844 C 3.773438 17.515625 3.929688 17.632812 4.105469 17.632812 C 4.136719 17.632812 4.167969 17.628906 4.199219 17.625 Z M 4.199219 17.625 " fill-opacity="1" fill-rule="nonzero"/></g><g clip-path="url(#id9)"><path fill="#0080ff" d="M 3.933594 16.488281 C 4.148438 16.457031 4.296875 16.265625 4.265625 16.050781 C 4.234375 15.839844 4.035156 15.691406 3.828125 15.722656 C 3.613281 15.753906 3.464844 15.949219 3.496094 16.160156 C 3.523438 16.351562 3.691406 16.492188 3.878906 16.492188 C 3.898438 16.492188 3.914062 16.492188 3.933594 16.488281 Z M 3.933594 16.488281 " fill-opacity="1" fill-rule="nonzero"/></g><path fill="#0080ff" d="M 4.804688 18.222656 C 4.738281 18.023438 4.511719 17.917969 4.308594 17.992188 C 4.109375 18.0625 4.007812 18.285156 4.082031 18.484375 C 4.136719 18.644531 4.289062 18.742188 4.441406 18.742188 C 4.488281 18.742188 4.53125 18.734375 4.578125 18.71875 C 4.777344 18.644531 4.878906 18.425781 4.804688 18.222656 Z M 4.804688 18.222656 " fill-opacity="1" fill-rule="nonzero"/><g clip-path="url(#id10)"><path fill="#0080ff" d="M 3.777344 15.339844 C 3.78125 15.339844 3.789062 15.339844 3.792969 15.339844 C 4.003906 15.332031 4.171875 15.148438 4.164062 14.9375 C 4.15625 14.722656 3.972656 14.558594 3.761719 14.566406 C 3.546875 14.574219 3.382812 14.75 3.390625 14.96875 C 3.398438 15.171875 3.570312 15.339844 3.777344 15.339844 Z M 3.777344 15.339844 " fill-opacity="1" fill-rule="nonzero"/></g><path fill="#0080ff" d="M 8.328125 23.554688 C 8.207031 23.730469 8.25 23.96875 8.425781 24.09375 C 8.496094 24.140625 8.570312 24.160156 8.648438 24.160156 C 8.769531 24.160156 8.890625 24.101562 8.964844 23.992188 C 9.089844 23.816406 9.042969 23.574219 8.867188 23.453125 C 8.6875 23.332031 8.449219 23.375 8.328125 23.554688 Z M 8.328125 23.554688 " fill-opacity="1" fill-rule="nonzero"/><path fill="#0080ff" d="M 22.328125 22.496094 L 22.328125 22.492188 C 22.171875 22.640625 22.160156 22.882812 22.304688 23.042969 C 22.382812 23.125 22.488281 23.167969 22.59375 23.167969 C 22.683594 23.167969 22.777344 23.132812 22.851562 23.066406 C 23.011719 22.917969 23.019531 22.675781 22.875 22.519531 C 22.730469 22.363281 22.484375 22.351562 22.328125 22.496094 Z M 22.328125 22.496094 " fill-opacity="1" fill-rule="nonzero"/><path fill="#0080ff" d="M 23.113281 21.695312 C 22.972656 21.855469 22.988281 22.097656 23.144531 22.242188 C 23.21875 22.308594 23.3125 22.339844 23.402344 22.339844 C 23.511719 22.339844 23.613281 22.296875 23.691406 22.207031 C 23.835938 22.046875 23.820312 21.804688 23.660156 21.660156 C 23.5 21.523438 23.253906 21.535156 23.113281 21.695312 Z M 23.113281 21.695312 " fill-opacity="1" fill-rule="nonzero"/><path fill="#0080ff" d="M 23.8125 20.816406 C 23.6875 20.992188 23.726562 21.234375 23.902344 21.359375 C 23.96875 21.410156 24.046875 21.433594 24.125 21.433594 C 24.25 21.433594 24.367188 21.375 24.441406 21.269531 C 24.566406 21.097656 24.527344 20.855469 24.355469 20.726562 C 24.179688 20.605469 23.9375 20.648438 23.8125 20.816406 Z M 23.8125 20.816406 " fill-opacity="1" fill-rule="nonzero"/><path fill="#0080ff" d="M 21.464844 23.210938 C 21.296875 23.335938 21.261719 23.582031 21.386719 23.75 C 21.460938 23.855469 21.578125 23.90625 21.699219 23.90625 C 21.777344 23.90625 21.859375 23.882812 21.925781 23.832031 C 22.101562 23.703125 22.136719 23.460938 22.007812 23.292969 C 21.878906 23.117188 21.636719 23.082031 21.464844 23.210938 Z M 21.464844 23.210938 " fill-opacity="1" fill-rule="nonzero"/><path fill="#0080ff" d="M 20.53125 23.832031 C 20.351562 23.945312 20.289062 24.179688 20.402344 24.363281 C 20.46875 24.488281 20.601562 24.554688 20.734375 24.554688 C 20.800781 24.554688 20.871094 24.539062 20.929688 24.5 C 21.113281 24.390625 21.175781 24.152344 21.0625 23.96875 C 20.953125 23.785156 20.71875 23.726562 20.53125 23.832031 Z M 20.53125 23.832031 " fill-opacity="1" fill-rule="nonzero"/><path fill="#0080ff" d="M 24.945312 19.730469 C 24.761719 19.625 24.523438 19.691406 24.414062 19.875 L 24.417969 19.875 C 24.3125 20.0625 24.378906 20.296875 24.5625 20.402344 C 24.621094 20.4375 24.6875 20.453125 24.753906 20.453125 C 24.886719 20.453125 25.019531 20.382812 25.089844 20.257812 C 25.199219 20.074219 25.132812 19.835938 24.945312 19.730469 Z M 24.945312 19.730469 " fill-opacity="1" fill-rule="nonzero"/><g clip-path="url(#id11)"><path fill="#0080ff" d="M 26.203125 15.292969 C 25.992188 15.269531 25.800781 15.425781 25.777344 15.636719 C 25.753906 15.851562 25.910156 16.039062 26.125 16.0625 C 26.136719 16.0625 26.148438 16.0625 26.164062 16.0625 C 26.359375 16.0625 26.53125 15.914062 26.550781 15.714844 C 26.570312 15.503906 26.417969 15.3125 26.203125 15.292969 Z M 26.203125 15.292969 " fill-opacity="1" fill-rule="nonzero"/></g><g clip-path="url(#id12)"><path fill="#0080ff" d="M 26.066406 16.445312 C 25.855469 16.398438 25.652344 16.535156 25.609375 16.746094 C 25.5625 16.953125 25.699219 17.15625 25.90625 17.199219 C 25.933594 17.210938 25.960938 17.210938 25.988281 17.210938 C 26.164062 17.210938 26.328125 17.085938 26.363281 16.902344 C 26.410156 16.695312 26.273438 16.488281 26.066406 16.445312 Z M 26.066406 16.445312 " fill-opacity="1" fill-rule="nonzero"/></g><g clip-path="url(#id13)"><path fill="#0080ff" d="M 25.804688 17.578125 C 25.605469 17.511719 25.382812 17.621094 25.320312 17.828125 C 25.257812 18.027344 25.367188 18.25 25.570312 18.316406 C 25.609375 18.328125 25.652344 18.332031 25.691406 18.332031 C 25.851562 18.332031 26.003906 18.226562 26.058594 18.066406 C 26.125 17.859375 26.011719 17.640625 25.804688 17.578125 Z M 25.804688 17.578125 " fill-opacity="1" fill-rule="nonzero"/></g><path fill="#0080ff" d="M 25.433594 18.675781 C 25.238281 18.589844 25.007812 18.679688 24.921875 18.875 C 24.832031 19.070312 24.921875 19.300781 25.121094 19.382812 C 25.171875 19.40625 25.226562 19.417969 25.273438 19.417969 C 25.425781 19.417969 25.566406 19.332031 25.632812 19.1875 C 25.714844 18.988281 25.628906 18.761719 25.433594 18.675781 Z M 25.433594 18.675781 " fill-opacity="1" fill-rule="nonzero"/><path fill="#0080ff" d="M 19.546875 24.359375 C 19.347656 24.449219 19.265625 24.675781 19.355469 24.871094 C 19.421875 25.011719 19.5625 25.09375 19.707031 25.09375 C 19.761719 25.09375 19.816406 25.082031 19.871094 25.058594 C 20.0625 24.972656 20.148438 24.738281 20.054688 24.546875 C 19.96875 24.351562 19.738281 24.265625 19.546875 24.359375 Z M 19.546875 24.359375 " fill-opacity="1" fill-rule="nonzero"/><path fill="#0080ff" d="M 12.976562 25.167969 C 12.765625 25.128906 12.5625 25.265625 12.523438 25.480469 C 12.484375 25.6875 12.617188 25.890625 12.832031 25.929688 C 12.855469 25.9375 12.878906 25.9375 12.902344 25.9375 C 13.082031 25.9375 13.246094 25.808594 13.285156 25.621094 C 13.324219 25.414062 13.183594 25.207031 12.976562 25.167969 Z M 12.976562 25.167969 " fill-opacity="1" fill-rule="nonzero"/><g clip-path="url(#id14)"><path fill="#0080ff" d="M 14.085938 25.320312 C 13.875 25.300781 13.683594 25.457031 13.667969 25.671875 C 13.648438 25.890625 13.808594 26.074219 14.019531 26.09375 C 14.019531 26.089844 14.019531 26.089844 14.019531 26.089844 C 14.03125 26.09375 14.042969 26.09375 14.050781 26.09375 C 14.253906 26.09375 14.421875 25.9375 14.4375 25.738281 C 14.453125 25.523438 14.300781 25.339844 14.085938 25.320312 Z M 14.085938 25.320312 " fill-opacity="1" fill-rule="nonzero"/></g><path fill="#0080ff" d="M 11.886719 24.90625 C 11.683594 24.84375 11.464844 24.960938 11.402344 25.160156 C 11.34375 25.367188 11.457031 25.582031 11.664062 25.644531 C 11.703125 25.65625 11.738281 25.660156 11.773438 25.660156 C 11.941406 25.660156 12.097656 25.550781 12.148438 25.386719 C 12.207031 25.179688 12.09375 24.964844 11.886719 24.90625 Z M 11.886719 24.90625 " fill-opacity="1" fill-rule="nonzero"/><path fill="#0080ff" d="M 10.832031 24.527344 C 10.632812 24.445312 10.410156 24.539062 10.328125 24.734375 C 10.242188 24.933594 10.335938 25.15625 10.53125 25.242188 C 10.582031 25.261719 10.632812 25.269531 10.683594 25.269531 C 10.835938 25.269531 10.976562 25.179688 11.039062 25.035156 C 11.121094 24.835938 11.027344 24.609375 10.832031 24.527344 Z M 10.832031 24.527344 " fill-opacity="1" fill-rule="nonzero"/><g clip-path="url(#id15)"><path fill="#0080ff" d="M 16.324219 25.277344 C 16.109375 25.304688 15.960938 25.496094 15.988281 25.707031 C 16.011719 25.90625 16.175781 26.046875 16.371094 26.046875 C 16.386719 26.046875 16.402344 26.046875 16.417969 26.042969 C 16.417969 26.046875 16.417969 26.046875 16.417969 26.046875 C 16.628906 26.019531 16.78125 25.828125 16.753906 25.613281 C 16.730469 25.402344 16.535156 25.25 16.324219 25.277344 Z M 16.324219 25.277344 " fill-opacity="1" fill-rule="nonzero"/></g><path fill="#0080ff" d="M 18.503906 24.777344 C 18.304688 24.84375 18.195312 25.0625 18.265625 25.269531 C 18.320312 25.429688 18.46875 25.527344 18.628906 25.527344 C 18.671875 25.527344 18.714844 25.519531 18.753906 25.507812 C 18.957031 25.441406 19.066406 25.21875 18.996094 25.019531 C 18.925781 24.8125 18.707031 24.707031 18.503906 24.777344 Z M 18.503906 24.777344 " fill-opacity="1" fill-rule="nonzero"/><path fill="#0080ff" d="M 17.425781 25.082031 C 17.21875 25.128906 17.085938 25.339844 17.136719 25.546875 C 17.175781 25.726562 17.339844 25.847656 17.511719 25.847656 C 17.542969 25.847656 17.570312 25.847656 17.601562 25.839844 C 17.808594 25.792969 17.9375 25.582031 17.890625 25.375 C 17.839844 25.164062 17.636719 25.039062 17.425781 25.082031 Z M 17.425781 25.082031 " fill-opacity="1" fill-rule="nonzero"/><g clip-path="url(#id16)"><path fill="#0080ff" d="M 15.207031 25.355469 C 14.992188 25.359375 14.820312 25.535156 14.824219 25.75 C 14.828125 25.960938 15.003906 26.128906 15.214844 26.128906 C 15.21875 26.128906 15.21875 26.128906 15.21875 26.128906 C 15.433594 26.125 15.605469 25.949219 15.601562 25.734375 C 15.597656 25.519531 15.417969 25.351562 15.207031 25.355469 Z M 15.207031 25.355469 " fill-opacity="1" fill-rule="nonzero"/></g><path fill="#0080ff" d="M 9.820312 24.042969 C 9.632812 23.9375 9.398438 24.007812 9.292969 24.195312 C 9.191406 24.382812 9.261719 24.617188 9.453125 24.71875 C 9.511719 24.753906 9.570312 24.769531 9.632812 24.769531 C 9.773438 24.769531 9.90625 24.695312 9.976562 24.566406 C 10.078125 24.378906 10.007812 24.140625 9.820312 24.042969 Z M 9.820312 24.042969 " fill-opacity="1" fill-rule="nonzero"/></svg>