<svg xmlns="http://www.w3.org/2000/svg" xmlns:xlink="http://www.w3.org/1999/xlink" width="40" zoomAndPan="magnify" viewBox="0 0 30 30.000001" height="40" preserveAspectRatio="xMidYMid meet" version="1.0"><defs><filter x="0%" y="0%" width="100%" height="100%" id="id1"><feColorMatrix values="0 0 0 0 1 0 0 0 0 1 0 0 0 0 1 0 0 0 1 0" color-interpolation-filters="sRGB"/></filter><clipPath id="id2"><path d="M 0.484375 0 L 29.515625 0 L 29.515625 29.03125 L 0.484375 29.03125 Z M 0.484375 0 " clip-rule="nonzero"/></clipPath><clipPath id="id3"><path d="M 0.484375 0 L 13 0 L 13 29.03125 L 0.484375 29.03125 Z M 0.484375 0 " clip-rule="nonzero"/></clipPath><mask id="id4"><g filter="url(#id1)"><rect x="-3" width="36" fill="#000000" y="-3" height="36.000001" fill-opacity="0.2471"/></g></mask><clipPath id="id5"><path d="M 0.484375 0 L 12.097656 0 L 12.097656 29.03125 L 0.484375 29.03125 Z M 0.484375 0 " clip-rule="nonzero"/></clipPath><clipPath id="id6"><rect x="0" width="13" y="0" height="30"/></clipPath><clipPath id="id7"><path d="M 3.339844 2.902344 L 26.566406 2.902344 L 26.566406 26.128906 L 3.339844 26.128906 Z M 3.339844 2.902344 " clip-rule="nonzero"/></clipPath></defs><g clip-path="url(#id2)"><path fill="#ffffff" d="M 0.484375 0 L 29.515625 0 L 29.515625 29.03125 L 0.484375 29.03125 Z M 0.484375 0 " fill-opacity="1" fill-rule="nonzero"/><path fill="#ffffff" d="M 0.484375 0 L 29.515625 0 L 29.515625 29.03125 L 0.484375 29.03125 Z M 0.484375 0 " fill-opacity="1" fill-rule="nonzero"/><path fill="#ffffff" d="M 0.484375 0 L 29.515625 0 L 29.515625 29.03125 L 0.484375 29.03125 Z M 0.484375 0 " fill-opacity="1" fill-rule="nonzero"/></g><g clip-path="url(#id3)"><g mask="url(#id4)"><g transform="matrix(1, 0, 0, 1, 0, 0.000000000000005692)"><g clip-path="url(#id6)"><g clip-path="url(#id5)"><path fill="#0080ff" d="M 0.484375 0 L 12.097656 0 L 12.097656 29.03125 L 0.484375 29.03125 L 0.484375 0 " fill-opacity="1" fill-rule="nonzero"/></g></g></g></g></g><g clip-path="url(#id7)"><path fill="#0080ff" d="M 26.261719 3.015625 C 26.109375 2.867188 25.863281 2.867188 25.714844 3.015625 L 24.277344 4.453125 L 15.265625 4.453125 L 3.933594 15.875 C 3.675781 16.132812 3.535156 16.476562 3.535156 16.839844 C 3.535156 17.207031 3.675781 17.550781 3.933594 17.808594 L 11.855469 25.730469 C 12.125 25.996094 12.472656 26.128906 12.820312 26.128906 C 13.171875 26.128906 13.523438 25.996094 13.792969 25.726562 L 24.824219 14.394531 L 24.824219 5 L 26.261719 3.5625 C 26.414062 3.414062 26.414062 3.167969 26.261719 3.015625 Z M 24.050781 14.082031 L 13.242188 25.183594 C 13.011719 25.414062 12.636719 25.414062 12.40625 25.183594 L 4.480469 17.261719 C 4.25 17.027344 4.25 16.652344 4.484375 16.421875 L 15.589844 5.226562 L 23.503906 5.226562 L 21.632812 7.097656 C 21.328125 6.894531 20.960938 6.773438 20.566406 6.773438 C 19.5 6.773438 18.632812 7.644531 18.632812 8.710938 C 18.632812 9.777344 19.5 10.644531 20.566406 10.644531 C 21.636719 10.644531 22.503906 9.777344 22.503906 8.710938 C 22.503906 8.316406 22.382812 7.949219 22.179688 7.644531 L 24.050781 5.773438 Z M 21.730469 8.710938 C 21.730469 9.351562 21.207031 9.871094 20.566406 9.871094 C 19.925781 9.871094 19.40625 9.351562 19.40625 8.710938 C 19.40625 8.070312 19.925781 7.546875 20.566406 7.546875 C 20.746094 7.546875 20.914062 7.59375 21.066406 7.664062 L 20.292969 8.4375 C 20.144531 8.585938 20.144531 8.832031 20.292969 8.984375 C 20.371094 9.058594 20.46875 9.097656 20.566406 9.097656 C 20.667969 9.097656 20.765625 9.058594 20.839844 8.984375 L 21.613281 8.210938 C 21.683594 8.363281 21.730469 8.53125 21.730469 8.710938 Z M 21.730469 8.710938 " fill-opacity="1" fill-rule="nonzero"/></g><path fill="#0080ff" d="M 16.523438 18.1875 L 12.414062 22.292969 C 12.265625 22.441406 12.265625 22.6875 12.414062 22.839844 C 12.492188 22.914062 12.589844 22.953125 12.691406 22.953125 C 12.789062 22.953125 12.886719 22.914062 12.964844 22.839844 L 17.070312 18.734375 C 17.222656 18.582031 17.222656 18.335938 17.070312 18.1875 C 16.917969 18.035156 16.671875 18.035156 16.523438 18.1875 Z M 16.523438 18.1875 " fill-opacity="1" fill-rule="nonzero"/><path fill="#0080ff" d="M 17.890625 16.816406 C 17.820312 16.890625 17.777344 16.988281 17.777344 17.089844 C 17.777344 17.191406 17.820312 17.292969 17.890625 17.367188 C 17.960938 17.433594 18.0625 17.476562 18.164062 17.476562 C 18.269531 17.476562 18.367188 17.433594 18.4375 17.367188 C 18.507812 17.292969 18.550781 17.195312 18.550781 17.089844 C 18.550781 16.984375 18.507812 16.886719 18.4375 16.816406 C 18.300781 16.671875 18.03125 16.671875 17.890625 16.816406 Z M 17.890625 16.816406 " fill-opacity="1" fill-rule="nonzero"/><path fill="#0080ff" d="M 14.605469 13.53125 C 14.757812 13.378906 14.757812 13.136719 14.605469 12.984375 C 14.453125 12.832031 14.210938 12.832031 14.058594 12.984375 L 9.953125 17.089844 C 9.800781 17.242188 9.800781 17.488281 9.953125 17.636719 C 10.027344 17.714844 10.128906 17.75 10.226562 17.75 C 10.324219 17.75 10.425781 17.714844 10.5 17.636719 Z M 14.605469 13.53125 " fill-opacity="1" fill-rule="nonzero"/><path fill="#0080ff" d="M 13.238281 18.1875 C 13.3125 18.261719 13.410156 18.300781 13.511719 18.300781 C 13.609375 18.300781 13.710938 18.261719 13.785156 18.1875 L 16.523438 15.449219 C 16.671875 15.296875 16.671875 15.050781 16.523438 14.902344 C 16.371094 14.75 16.125 14.75 15.976562 14.902344 L 13.238281 17.636719 C 13.085938 17.789062 13.085938 18.035156 13.238281 18.1875 Z M 13.238281 18.1875 " fill-opacity="1" fill-rule="nonzero"/><path fill="#0080ff" d="M 11.046875 19.828125 L 10.5 20.375 C 10.347656 20.527344 10.347656 20.773438 10.5 20.921875 C 10.574219 21 10.675781 21.035156 10.773438 21.035156 C 10.871094 21.035156 10.972656 21 11.046875 20.921875 L 11.59375 20.375 C 11.746094 20.222656 11.746094 19.980469 11.59375 19.828125 C 11.445312 19.675781 11.199219 19.675781 11.046875 19.828125 Z M 11.046875 19.828125 " fill-opacity="1" fill-rule="nonzero"/><path fill="#0080ff" d="M 11.320312 12.4375 C 11.167969 12.285156 10.925781 12.285156 10.773438 12.4375 L 6.667969 16.542969 C 6.515625 16.695312 6.515625 16.9375 6.667969 17.089844 C 6.742188 17.164062 6.84375 17.203125 6.941406 17.203125 C 7.039062 17.203125 7.140625 17.164062 7.214844 17.089844 L 11.320312 12.984375 C 11.472656 12.832031 11.472656 12.589844 11.320312 12.4375 Z M 11.320312 12.4375 " fill-opacity="1" fill-rule="nonzero"/><path fill="#0080ff" d="M 12.414062 11.730469 C 12.519531 11.730469 12.617188 11.6875 12.691406 11.617188 C 12.757812 11.542969 12.800781 11.441406 12.800781 11.34375 C 12.800781 11.238281 12.757812 11.136719 12.691406 11.066406 C 12.546875 10.925781 12.28125 10.925781 12.144531 11.066406 C 12.070312 11.140625 12.027344 11.238281 12.027344 11.34375 C 12.027344 11.441406 12.070312 11.542969 12.140625 11.617188 C 12.214844 11.6875 12.316406 11.730469 12.414062 11.730469 Z M 12.414062 11.730469 " fill-opacity="1" fill-rule="nonzero"/><path fill="#0080ff" d="M 8.859375 18.1875 C 8.785156 18.257812 8.746094 18.355469 8.746094 18.460938 C 8.746094 18.5625 8.785156 18.664062 8.859375 18.730469 C 8.929688 18.804688 9.027344 18.847656 9.132812 18.847656 C 9.234375 18.847656 9.332031 18.804688 9.40625 18.730469 C 9.476562 18.660156 9.519531 18.5625 9.519531 18.460938 C 9.519531 18.355469 9.476562 18.257812 9.402344 18.1875 C 9.261719 18.042969 9 18.042969 8.859375 18.1875 Z M 8.859375 18.1875 " fill-opacity="1" fill-rule="nonzero"/><path fill="#0080ff" d="M 12.691406 19.28125 C 12.761719 19.207031 12.800781 19.109375 12.800781 19.007812 C 12.800781 18.90625 12.761719 18.804688 12.691406 18.730469 C 12.546875 18.589844 12.28125 18.589844 12.140625 18.730469 C 12.070312 18.804688 12.027344 18.90625 12.027344 19.007812 C 12.027344 19.109375 12.070312 19.207031 12.140625 19.28125 C 12.214844 19.351562 12.3125 19.394531 12.414062 19.394531 C 12.519531 19.394531 12.617188 19.351562 12.691406 19.28125 Z M 12.691406 19.28125 " fill-opacity="1" fill-rule="nonzero"/></svg>