<?xml version="1.0" encoding="UTF-8" standalone="no"?>
<!-- Created with Inkscape (http://www.inkscape.org/) -->

<svg
   xmlns:dc="http://purl.org/dc/elements/1.1/"
   xmlns:cc="http://creativecommons.org/ns#"
   xmlns:rdf="http://www.w3.org/1999/02/22-rdf-syntax-ns#"
   xmlns:svg="http://www.w3.org/2000/svg"
   xmlns="http://www.w3.org/2000/svg"
   xmlns:sodipodi="http://sodipodi.sourceforge.net/DTD/sodipodi-0.dtd"
   xmlns:inkscape="http://www.inkscape.org/namespaces/inkscape"
   width="181.86093mm"
   height="67.946495mm"
   viewBox="0 0 181.86093 67.946496"
   version="1.1"
   id="svg8"
   inkscape:export-filename="/home/pga/bitmap.png"
   inkscape:export-xdpi="76"
   inkscape:export-ydpi="76"
   inkscape:version="0.92.4 (unknown)"
   sodipodi:docname="white_logo.svg">
  <defs
     id="defs2" />
  <sodipodi:namedview
     id="base"
     pagecolor="#ffffff"
     bordercolor="#666666"
     borderopacity="1.0"
     inkscape:pageopacity="0.0"
     inkscape:pageshadow="2"
     inkscape:zoom="0.50000001"
     inkscape:cx="354.53399"
     inkscape:cy="111.871"
     inkscape:document-units="mm"
     inkscape:current-layer="layer1"
     showgrid="false"
     inkscape:window-width="1920"
     inkscape:window-height="1004"
     inkscape:window-x="0"
     inkscape:window-y="0"
     inkscape:window-maximized="1"
     fit-margin-top="0"
     fit-margin-left="0"
     fit-margin-right="0"
     fit-margin-bottom="0"
     width="296mm" />
  <metadata
     id="metadata5">
    <rdf:RDF>
      <cc:Work
         rdf:about="">
        <dc:format>image/svg+xml</dc:format>
        <dc:type
           rdf:resource="http://purl.org/dc/dcmitype/StillImage" />
        <dc:title />
      </cc:Work>
    </rdf:RDF>
  </metadata>
  <g
     inkscape:label="Layer 1"
     inkscape:groupmode="layer"
     id="layer1"
     transform="translate(-82.949981,-6.7938269)">
    <g
       aria-label="Droggo"
       style="font-style:normal;font-variant:normal;font-weight:normal;font-stretch:normal;font-size:10.58333302px;line-height:1.25;font-family:Kollektif;-inkscape-font-specification:Kollektif;letter-spacing:0px;word-spacing:0px;fill:#ffffff;fill-opacity:1;stroke:none;stroke-width:0.26458332"
       id="text817">
      <path
         id="path838"
         style="font-style:normal;font-variant:normal;font-weight:bold;font-stretch:normal;font-size:50.79999924px;font-family:Kollektif;-inkscape-font-specification:Kollektif;fill:#ffffff;fill-opacity:1;stroke-width:0.26458332"
         d="m 240.34981,38.469121 q 2.6924,0 5.08,1.0668 2.3876,1.016 4.1656,2.8448 1.778,1.778 2.794,4.2164 1.0668,2.3876 1.0668,5.1308 0,2.7432 -1.0668,5.1816 -1.016,2.3876 -2.794,4.2164 -1.778,1.778 -4.1656,2.8448 -2.3876,1.016 -5.08,1.016 -2.7432,0 -5.1308,-1.016 -2.3876,-1.0668 -4.1656,-2.8448 -1.778,-1.8288 -2.8448,-4.2164 -1.016,-2.4384 -1.016,-5.1816 0,-2.7432 1.016,-5.1308 1.0668,-2.4384 2.8448,-4.2164 1.778,-1.8288 4.1656,-2.8448 2.3876,-1.0668 5.1308,-1.0668 z m 0,20.3708 q 1.27,0 2.3368,-0.508 1.1176,-0.508 1.9304,-1.3716 0.8636,-0.9144 1.3208,-2.1336 0.508,-1.27 0.508,-2.794 0,-1.524 -0.508,-2.8448 -0.4572,-1.3208 -1.3208,-2.286 -0.8128,-1.016 -1.9304,-1.5748 -1.0668,-0.6096 -2.3368,-0.6096 -1.27,0 -2.3876,0.6096 -1.1176,0.5588 -1.9812,1.5748 -0.8128,0.9652 -1.3208,2.286 -0.4572,1.3208 -0.4572,2.8448 0,1.524 0.4572,2.794 0.508,1.2192 1.3208,2.1336 0.8636,0.8636 1.9812,1.3716 1.1176,0.508 2.3876,0.508 z m -22.7965,-19.6596 h 5.9944 v 16.6624 q 0,2.8956 -0.1016,5.1816 -0.0508,2.2352 -0.3556,4.0132 -0.3048,1.8288 -1.016,3.2512 -0.6604,1.4224 -1.8796,2.6416 -2.2352,2.1844 -5.0292,2.9972 -2.7432,0.8128 -5.7912,0.8128 -2.5908,0 -4.8768,-0.6096 -2.286,-0.6096 -4.1148,-1.6764 v -6.5532 q 0.4572,0.7112 1.27,1.27 0.8636,0.5588 1.9304,0.9652 1.1176,0.4064 2.3368,0.6096 1.27,0.254 2.54,0.254 1.6764,0 3.1496,-0.4572 1.4732,-0.4064 2.54,-1.3716 1.1176,-0.9652 1.7272,-2.4384 0.6604,-1.4224 0.6604,-3.5052 v -0.508 q -1.4732,1.3208 -3.4036,2.1336 -1.9304,0.762 -4.2164,0.762 -2.54,0 -4.7244,-0.9652 -2.1336,-1.016 -3.7084,-2.6924 -1.5748,-1.7272 -2.4892,-4.0132 -0.8636,-2.3368 -0.8636,-4.9276 0,-2.5908 0.8636,-4.8768 0.9144,-2.286 2.4892,-3.9624 1.5748,-1.7272 3.7084,-2.6924 2.1844,-1.016 4.7244,-1.016 2.3876,0 4.318,0.6604 1.9304,0.6096 3.302,1.9812 z m -7.2136,18.1864 q 1.6256,0 2.794,-0.5588 1.1684,-0.6096 1.9304,-1.524 0.762,-0.9144 1.1176,-2.032 0.3556,-1.1176 0.3556,-2.1844 0,-1.1684 -0.4064,-2.286 -0.3556,-1.1684 -1.1176,-2.032 -0.762,-0.9144 -1.9304,-1.4732 -1.1684,-0.5588 -2.7432,-0.5588 -1.3208,0 -2.4384,0.508 -1.1176,0.508 -1.9812,1.3716 -0.8128,0.8636 -1.3208,2.032 -0.4572,1.1176 -0.4572,2.4384 0,1.3208 0.4572,2.4892 0.508,1.1176 1.3208,1.9812 0.8636,0.8636 1.9812,1.3716 1.1176,0.4572 2.4384,0.4572 z m -22.9489,-18.1864 h 5.9944 v 16.6624 q 0,2.8956 -0.1016,5.1816 -0.0508,2.2352 -0.3556,4.0132 -0.3048,1.8288 -1.016,3.2512 -0.6604,1.4224 -1.8796,2.6416 -2.2352,2.1844 -5.0292,2.9972 -2.7432,0.8128 -5.7912,0.8128 -2.5908,0 -4.8768,-0.6096 -2.286,-0.6096 -4.1148,-1.6764 v -6.5532 q 0.4572,0.7112 1.27,1.27 0.8636,0.5588 1.9304,0.9652 1.1176,0.4064 2.3368,0.6096 1.27,0.254 2.54,0.254 1.6764,0 3.1496,-0.4572 1.4732,-0.4064 2.54,-1.3716 1.1176,-0.9652 1.7272,-2.4384 0.6604,-1.4224 0.6604,-3.5052 v -0.508 q -1.4732,1.3208 -3.4036,2.1336 -1.9304,0.762 -4.2164,0.762 -2.54,0 -4.7244,-0.9652 -2.1336,-1.016 -3.7084,-2.6924 -1.5748,-1.7272 -2.4892,-4.0132 -0.8636,-2.3368 -0.8636,-4.9276 0,-2.5908 0.8636,-4.8768 0.9144,-2.286 2.4892,-3.9624 1.5748,-1.7272 3.7084,-2.6924 2.1844,-1.016 4.7244,-1.016 2.3876,0 4.318,0.6604 1.9304,0.6096 3.302,1.9812 z m -7.2136,18.1864 q 1.6256,0 2.794,-0.5588 1.1684,-0.6096 1.9304,-1.524 0.762,-0.9144 1.1176,-2.032 0.3556,-1.1176 0.3556,-2.1844 0,-1.1684 -0.4064,-2.286 -0.3556,-1.1684 -1.1176,-2.032 -0.762,-0.9144 -1.9304,-1.4732 -1.1684,-0.5588 -2.7432,-0.5588 -1.3208,0 -2.4384,0.508 -1.1176,0.508 -1.9812,1.3716 -0.8128,0.8636 -1.3208,2.032 -0.4572,1.1176 -0.4572,2.4384 0,1.3208 0.4572,2.4892 0.508,1.1176 1.3208,1.9812 0.8636,0.8636 1.9812,1.3716 1.1176,0.4572 2.4384,0.4572 z m -29.32271,-18.8976 q 2.6924,0 5.08,1.0668 2.3876,1.016 4.1656,2.8448 1.778,1.778 2.794,4.2164 1.0668,2.3876 1.0668,5.1308 0,2.7432 -1.0668,5.1816 -1.016,2.3876 -2.794,4.2164 -1.778,1.778 -4.1656,2.8448 -2.3876,1.016 -5.08,1.016 -2.7432,0 -5.1308,-1.016 -2.3876,-1.0668 -4.1656,-2.8448 -1.778,-1.8288 -2.8448,-4.2164 -1.016,-2.4384 -1.016,-5.1816 0,-2.7432 1.016,-5.1308 1.0668,-2.4384 2.8448,-4.2164 1.778,-1.8288 4.1656,-2.8448 2.3876,-1.0668 5.1308,-1.0668 z m 0,20.3708 q 1.27,0 2.3368,-0.508 1.1176,-0.508 1.9304,-1.3716 0.8636,-0.9144 1.3208,-2.1336 0.508,-1.27 0.508,-2.794 0,-1.524 -0.508,-2.8448 -0.4572,-1.3208 -1.3208,-2.286 -0.8128,-1.016 -1.9304,-1.5748 -1.0668,-0.6096 -2.3368,-0.6096 -1.27,0 -2.3876,0.6096 -1.1176,0.5588 -1.9812,1.5748 -0.8128,0.9652 -1.3208,2.286 -0.4572,1.3208 -0.4572,2.8448 0,1.524 0.4572,2.794 0.508,1.2192 1.3208,2.1336 0.8636,0.8636 1.9812,1.3716 1.1176,0.508 2.3876,0.508 z m -26.42156,-16.1544 q 0.508,-0.8128 1.1684,-1.524 0.6604,-0.762 1.5748,-1.3208 0.9144,-0.6096 2.0828,-0.9652 1.1684,-0.3556 2.6416,-0.3556 1.7272,0 4.0132,0.6096 l -0.6604,6.2484 q -0.5588,-0.1016 -1.1176,-0.254 -0.4572,-0.1016 -1.016,-0.1524 -0.5588,-0.1016 -1.016,-0.1016 -1.6256,0 -3.048,0.4572 -1.3716,0.4572 -2.3876,1.27 -1.016,0.8128 -1.6256,1.9812 -0.6096,1.1176 -0.6096,2.4384 v 13.3604 h -7.0104 v -25.1968 h 6.35 z M 97.478781,28.359922 q 3.911599,0 6.908799,1.422399 2.9972,1.4224 4.9784,3.8608 2.032,2.4384 3.048,5.7404 1.0668,3.302 1.0668,7.0104 0,3.7592 -1.1176,7.0612 -1.0668,3.2512 -2.9972,5.6896 -1.9304,2.4384 -4.572,3.8608 -2.6416,1.3716 -5.740399,1.3716 h -16.1036 V 28.359922 Z m 0.0508,29.057599 q 2.1844,0 3.708399,-0.8636 1.5748,-0.9144 2.5908,-2.4384 1.016,-1.524 1.4732,-3.5052 0.508,-1.9812 0.508,-4.1656 0,-2.1844 -0.4572,-4.1656 -0.4572,-2.032 -1.4732,-3.556 -1.016,-1.524 -2.5908,-2.4384 -1.574799,-0.9144 -3.759199,-0.9144 h -6.858 v 22.0472 z" />
    </g>
    <g
       style="fill:#000000"
       id="g883"
       transform="matrix(0,-0.19310706,0.19310706,0,205.77714,22.550297)">
      <g
         id="__id241_s1j87qcj7g"
         transform="translate(-54.80552)">
        <polygon
           points="72.2,308.2 69,184.1 64.2,308.2 "
           style="fill:#0080ff"
           id="polygon875"
           transform="matrix(1,0,0,0.71294449,0,52.846919)" />
      </g>
      <g
         id="__id242_s1j87qcj7g"
         transform="translate(-54.80552)">
        <path
           inkscape:connector-curvature="0"
           d="m 136.4,138.4 c 0,70.2 -68.2,115.9 -68.2,115.9 C 68.2,254.3 0,208.6 0,138.4 0,68.2 68.2,0 68.2,0 c 0,0 68.2,68.2 68.2,138.4 z"
           style="fill:#0080ff"
           id="path878" />
      </g>
      <path
         inkscape:connector-curvature="0"
         d="m 13.39448,0 c 0,0 -68.2,68.2 -68.2,138.4 0,70.2 68.2,115.9 68.2,115.9 z"
         style="opacity:0.07999998"
         id="path881" />
    </g>
    <text
       xml:space="preserve"
       style="font-style:normal;font-weight:normal;font-size:10.58333302px;line-height:1.25;font-family:sans-serif;letter-spacing:0px;word-spacing:0px;fill:#000000;fill-opacity:1;stroke:none;stroke-width:0.26458332"
       x="331.40643"
       y="89.479347"
       id="text3545"><tspan
         sodipodi:role="line"
         id="tspan3543"
         x="331.40643"
         y="98.843117"
         style="stroke-width:0.26458332" /></text>
    <text
       xml:space="preserve"
       style="font-style:normal;font-weight:normal;font-size:10.58333302px;line-height:1.25;font-family:sans-serif;letter-spacing:0px;word-spacing:0px;fill:#000000;fill-opacity:1;stroke:none;stroke-width:0.26458332"
       x="269.7471"
       y="67.670288"
       id="text826"><tspan
         sodipodi:role="line"
         id="tspan824"
         x="269.7471"
         y="77.034058"
         style="stroke-width:0.26458332" /></text>
    <rect
       style="opacity:1;fill:#ffffff;fill-opacity:1;stroke-width:0.09526565"
       id="rect830"
       width="7.521822"
       height="44.456753"
       x="257.28909"
       y="19.125162" />
  </g>
</svg>
